<?xml version="1.0" encoding="UTF-8"?>
<svg id="_レイヤー_1" data-name="レイヤー 1" xmlns="http://www.w3.org/2000/svg" viewBox="0 0 1920 700">
  <defs>
    <style>
      .cls-1 {
        fill: #fff;
      }
    </style>
  </defs>
  <g>
    <path class="cls-1" d="M132.37,385.75c-7.26,37.84-22.55,53.14-53.4,53.14-39.4,0-60.39-31.36-60.39-89.94,0-17.11,2.33-33.18,6.74-47.69,8.04-26.7,28.25-42.51,54.43-42.51,4.67,0,9.33.52,13.48,1.56,21.77,4.92,33.7,20.22,40.18,51.32l-20.22,4.67c-2.85-15.03-4.92-21.25-8.55-26.7-5.7-8.81-14-13.22-24.62-13.22-3.37,0-6.74.52-10.11,1.56-19.18,6.22-29.03,30.07-29.03,71.28,0,24.37,3.89,43.29,11.66,55.99,7,11.15,15.29,16.07,27.73,16.07,18.92,0,26.7-9.59,32.92-40.18l19.18,4.67Z"/>
    <path class="cls-1" d="M168.4,262.37v73.35h62.73v-73.35h21v172.89h-21v-82.17h-62.73v82.17h-21v-172.89h21Z"/>
    <path class="cls-1" d="M337.66,262.37l45.88,172.89h-21l-12.7-49.51h-52.1l-12.44,49.51h-21l48.47-172.89h24.88ZM323.92,282.85l-21.77,86.05h43.29l-21.51-86.05Z"/>
    <path class="cls-1" d="M446.26,262.37c15.03,0,28.51,3.89,36.29,10.63,9.59,8.29,15.03,21.25,15.03,36.55,0,6.48-1.04,12.7-2.85,18.4-4.41,12.44-11.66,20.22-25.4,26.96l32.4,80.35h-22.55l-29.03-75.43h-33.18v75.43h-21v-172.89h50.29ZM416.97,342.47h26.18c21.51,0,33.7-11.92,33.7-33.44,0-2.85-.26-5.44-.78-7.78-3.11-14.26-13.74-21.51-31.36-21.51h-27.73v62.73Z"/>
    <path class="cls-1" d="M587.79,262.37l45.88,172.89h-21l-12.7-49.51h-52.1l-12.44,49.51h-21l48.47-172.89h24.88ZM574.05,282.85l-21.77,86.05h43.29l-21.51-86.05Z"/>
    <path class="cls-1" d="M753.16,385.75c-7.26,37.84-22.55,53.14-53.4,53.14-39.4,0-60.39-31.36-60.39-89.94,0-17.11,2.33-33.18,6.74-47.69,8.04-26.7,28.25-42.51,54.43-42.51,4.67,0,9.33.52,13.48,1.56,21.77,4.92,33.7,20.22,40.18,51.32l-20.22,4.67c-2.85-15.03-4.92-21.25-8.55-26.7-5.7-8.81-14-13.22-24.62-13.22-3.37,0-6.74.52-10.11,1.56-19.18,6.22-29.03,30.07-29.03,71.28,0,24.37,3.89,43.29,11.66,55.99,7,11.15,15.29,16.07,27.73,16.07,18.92,0,26.7-9.59,32.92-40.18l19.18,4.67Z"/>
    <path class="cls-1" d="M858.65,262.37v17.63h-41.47v155.26h-21v-155.26h-41.21v-17.63h103.68Z"/>
    <path class="cls-1" d="M965.18,262.37v17.37h-72.83v57.28h57.54v17.37h-57.54v63.5h74.91v17.37h-95.9v-172.89h93.83Z"/>
    <path class="cls-1" d="M1035.68,262.37c15.03,0,28.51,3.89,36.29,10.63,9.59,8.29,15.03,21.25,15.03,36.55,0,6.48-1.04,12.7-2.85,18.4-4.41,12.44-11.66,20.22-25.4,26.96l32.4,80.35h-22.55l-29.03-75.43h-33.18v75.43h-21v-172.89h50.28ZM1006.4,342.47h26.18c21.51,0,33.7-11.92,33.7-33.44,0-2.85-.26-5.44-.78-7.78-3.11-14.26-13.74-21.51-31.36-21.51h-27.73v62.73Z"/>
  </g>
  <g>
    <path class="cls-1" d="M47.02,152.06c1.04-.16,1.76-1.04,1.76-2.08,0-.4-.08-.8-.16-1.28l-.4-1.84c-.48-2.16-1.12-5.84-1.76-7.92-.08-.24-.24-.56-.24-.88,0-1.04,1.36-1.04,3.36-1.12,1.92-.08,3.84-.16,5.76-.16.48,0,1.44,0,1.44.72,0,.8-.96,1.36-.96,2.96,0,.8.8,5.2.96,6.32l.32,1.36c.32,1.28,1.28,2.24,2.64,2.08l6.64-.96c1.44-.24,10.24-1.68,10.72-1.68,1.44,0,1.52,1.44,1.76,2.64.16.96.56,3.12.56,4,0,1.68-1.04,1.76-5.68,2.32-1.6.16-3.6.32-6.16.72l-6.48.96c-1.2.16-1.92,1.36-1.68,2.48l1.68,8.8c.24,1.28,1.36,2.08,2.64,1.92l12.96-1.84c1.36-.16,10.48-1.76,10.88-1.76,1.52,0,1.68,1.2,1.92,2.96.08.32.08.64.16,1.04.08.72.24,1.84.24,2.48,0,1.76-.8,1.92-5.68,2.48-1.6.16-3.68.4-6.4.8l-12.64,1.84c-1.2.16-1.92,1.28-1.68,2.48l.96,5.28c.4,2.16,2.72,12.4,2.72,13.6,0,1.12-.88,1.36-1.76,1.68-1.28.32-4,.96-5.28.96-1.52,0-1.68-1.52-1.92-3.28,0-.32-.08-.64-.16-.96-.56-3.2-1.28-7.28-1.84-10.4l-1.04-5.6c-.24-1.2-1.44-2.08-2.72-1.92l-14.08,2c-1.52.24-9.76,1.68-10.48,1.68-1.12,0-1.44-.64-1.68-1.6-.24-.8-.8-4.32-.8-5.2,0-1.52,1.04-1.68,5.28-2.08,1.6-.16,3.76-.4,6.56-.8l13.76-2c1.28-.16,2-1.28,1.76-2.48l-1.6-8.72c-.24-1.36-1.36-2.24-2.8-2l-7.04,1.04c-1.44.24-10.4,1.68-10.88,1.68-1.04,0-1.52-.96-1.68-1.92-.16-1.12-.64-3.84-.64-4.8,0-1.52,1.12-1.68,5.28-2.16,1.68-.16,4-.48,6.88-.88l6.72-.96Z"/>
    <path class="cls-1" d="M122.14,167.1c1.28-.24,2.08-1.36,1.76-2.72l-.8-3.68c-.08-.4-.72-3.2-1.28-5.52-.32-1.52-.72-2.8-.72-2.96,0-.72.72-.88,1.28-.96,1.6-.16,3.84-.32,5.44-.32.88,0,2.24.08,2.24,1.2,0,.32-.16.64-.24.88-.16.32-.32.56-.32.88,0,.8.8,4.48,1.04,5.52l.72,3.6c.24,1.28,1.36,2,2.56,1.76l12.96-2.64c.8-.16,6.72-1.44,6.8-1.44,1.28,0,5.12,3.44,5.12,4.96,0,.64-.4,1.12-.88,1.52-2.08,2.16-4.08,5.2-5.76,7.76-.88,1.36-4.08,6.24-4.96,7.12-.48.56-.96.88-1.68.88-1.12,0-5.44-1.68-5.44-3.2,0-.64.64-1.28.96-1.76.8-.88,5.36-6.72,5.36-7.44,0-.48-.4-.88-.88-.88-.32,0-.64.08-.88.16l-9.2,1.84c-.96.16-1.76,1.04-1.76,2.08v.56l3.36,16.32c.4,1.76,1.92,8,1.92,9.28,0,1.04-.64,1.28-1.92,1.68-.88.24-3.2.72-4,.72-1.44,0-1.84-1.52-2.4-5.28-.24-1.28-.48-2.96-.88-4.88l-3.36-16.32c-.24-1.12-1.12-1.76-2.16-1.76-.16,0-.48.08-.56.08l-5.76,1.2c-1.04.24-8.08,1.68-8.4,1.68-.88,0-1.2-.48-1.52-1.2-.24-.72-.88-3.84-.88-4.64,0-1.28.8-1.44,5.52-2.24,1.12-.16,2.4-.4,4-.72l5.6-1.12Z"/>
    <path class="cls-1" d="M223.1,157.5c1.84,0,5.52,0,7.2-.16.4-.08,1.04-.16,1.44-.16,1.68,0,5.68,3.84,5.68,5.28,0,.56-.64,2.08-1.04,3.28-1.28,3.84-2.56,7.2-4.64,10.8-4,7.12-10.16,13.84-16.56,18.88-2.24,1.84-10.88,8-13.36,8-1.84,0-5.52-4.56-5.52-5.92,0-.96,2-1.68,2.8-2.08,9.6-4.32,19.44-13.52,24.56-22.72.56-1.04,2.16-4.16,2.16-5.2,0-1.92-2.16-1.76-3.44-1.76h-29.76c-3.36,0-6.72.16-10.16.16-2.24,0-2.24-.8-2.24-3.92,0-4.08.08-4.64,2.32-4.64,3.36,0,6.8.16,10.24.16h30.32ZM217.74,140.22c3.28,0,7.36-.24,9.44-.24s2.16.88,2.16,4.88c0,2.72,0,3.76-2.16,3.76-3.2,0-6.32-.16-9.44-.16h-19.6c-3.12,0-6.24.16-9.36.16-2.24,0-2.24-.96-2.24-3.92,0-3.76.16-4.72,2.16-4.72,2.24,0,6.32.24,9.44.24h19.6Z"/>
    <path class="cls-1" d="M300.7,148.86c1.44,0,2.64-.08,4.48-.48.24,0,.56-.08.88-.08,1.6,0,5.12,4.4,5.12,5.44,0,.4-.32.96-.96,2-.64.96-1.44,2.32-2.48,4.32-7.84,15.2-15.68,26.88-30.4,36.4-1.76,1.12-9.28,5.84-10.96,5.84s-6.8-3.92-6.8-5.44c0-.8.96-1.2,1.6-1.44,12.88-5.76,22.96-13.92,30.88-25.6,1.36-2,6.16-9.76,6.16-11.76,0-1.04-1.28-1.12-2.4-1.12h-15.2c-1.84,0-2.32.8-3.36,2.24-1.52,2.16-10.72,13.12-12.88,13.12-.96,0-6.8-3.04-6.8-4.72,0-.56.32-.88.72-1.12,8.4-6.64,17.68-18.56,21.36-28.64.32-.8.56-1.92,1.28-1.92.4,0,2.56.96,4.24,1.76.72.4,4.8,1.92,4.8,2.8,0,.4-.4.72-.72.88-1.12.4-1.36.8-2.72,3.28-.32.64-1.44,2.24-1.44,2.88,0,.88.56,1.28,1.36,1.36h14.24Z"/>
    <path class="cls-1" d="M376.54,148.06c1.6,0,3.52-.08,4.88-.4.24-.08.56-.16.8-.16,1.36,0,4.16,4.16,4.16,5.44,0,.48-.24.8-.48,1.2-.96,1.44-1.36,2.32-2,3.92-2.24,5.12-4.8,10.08-7.6,14.88-.32.48-.56.96-.56,1.6,0,1.04.72,1.52,1.44,2.08.96.72,4.48,3.12,4.48,4.16,0,1.36-3.6,6.08-5.12,6.08-.48,0-.88-.32-1.2-.64-1.12-.96-2.16-1.76-3.28-2.72-.48-.4-1.04-.8-1.76-.8-1.12,0-2,1.12-2.72,1.92-4.96,5.52-10.96,10.08-17.44,13.52-1.76.96-8,4.08-9.68,4.08-2.08,0-5.76-5.12-5.76-6.24,0-.96,1.36-1.2,3.44-1.84,8.32-2.64,16.88-8,22.88-14.4.56-.56,1.2-1.2,1.2-2s-.4-1.28-.96-1.68c-1.84-1.2-6-3.36-8-4.32-.8-.32-2.4-.88-2.4-1.76,0-1.12,3.12-6,4.88-6,1.36,0,8.72,4.24,10.32,5.2.48.24.96.48,1.52.48,1.52,0,2.24-1.52,4.4-5.76.08-.24.24-.64.48-1.12.8-1.68,2.08-4.48,2.08-5.28,0-1.68-2.08-1.6-3.28-1.6h-15.28c-1.92,0-2.48.64-3.52,2.08-2.64,3.68-7.2,9.12-10.4,12.32-.64.64-1.6,1.52-2.56,1.52-1.44,0-6.64-3.36-6.64-4.72,0-.64.72-1.2,1.2-1.52,8-6.16,17.6-19.2,20.88-28.72.24-.64.56-2,1.44-2,.64,0,2.24.8,4.48,1.92.72.32,4.72,2.08,4.72,2.72,0,.48-.4.72-.8.88-1.2.48-1.28.72-2.4,2.64-.32.56-.72,1.28-1.28,2.16-.24.48-.64,1.12-.64,1.68,0,.8.72,1.12,1.44,1.2h14.64Z"/>
    <path class="cls-1" d="M453.98,164.06c3.68,0,8.88-.24,9.92-.24,2.16,0,2.24.64,2.24,5.04,0,2.56-.08,4.08-2.16,4.08-3.36,0-6.72-.16-10-.16h-36.8c-3.28,0-6.64.16-10,.16-2.08,0-2.16-1.52-2.16-4,0-4.48.16-5.12,2.24-5.12,1.04,0,6.56.24,9.92.24h36.8Z"/>
    <path class="cls-1" d="M502.86,169.1c0,5.28-3.52,9.68-9.6,9.68-4.96,0-8.72-3.44-8.72-8.4s3.36-9.68,9.76-9.68c4.8,0,8.56,3.36,8.56,8.4Z"/>
    <path class="cls-1" d="M572.22,153.02c3.36,0,6.72-.16,10-.16,2.4,0,2.32,1.04,2.32,5.52,0,2.32-.24,3.12-2.32,3.12-3.36,0-6.64-.16-10-.16h-3.68c-2.4,0-2.4,2.56-2.48,3.12-1.12,14.56-5.52,25.6-17.2,34.96-1.36,1.12-6.08,4.72-7.76,4.72s-5.92-4.16-5.92-5.6c0-.88,1.28-1.44,2.16-1.92,5.2-2.88,10.32-6.96,13.76-11.84,3.04-4.4,4.4-8.72,5.44-13.84.32-1.6.88-5.68.88-7.28,0-1.28-.88-2.32-2.24-2.32h-10.56c-1.76,0-2.56.32-3.52,1.84-1.6,2.48-10.48,15.12-12.88,15.12-1.6,0-6.72-3.2-6.72-4.88,0-.64.88-1.28,1.28-1.68,9.36-8.48,17.6-22.48,20.08-34.88.16-.96.32-1.84,1.04-1.84s4.16,1.12,5.12,1.36c.8.24,4.72,1.2,4.72,2.16,0,.48-.72.88-1.12,1.12-1.12.72-1.6,2-2.4,4.4-.56,1.52-1.2,3.44-2.24,5.92-.24.48-.48,1.04-.48,1.52,0,1.04.64,1.44,1.52,1.52h23.2ZM581.82,144.86c0,1.2-2.88,3.6-3.92,3.6-.4,0-.72-.4-1.04-.72-1.68-2.16-3.76-4.56-5.68-6.48-.32-.32-.72-.72-.72-1.12,0-.96,3.04-3.28,3.92-3.28.72,0,7.44,7.04,7.44,8ZM589.82,139.42c0,1.12-2.88,3.6-3.84,3.6-.48,0-.8-.48-1.04-.8-1.68-2.08-3.92-4.56-5.76-6.4-.32-.24-.72-.64-.72-1.04,0-.96,2.96-3.28,3.92-3.28.72,0,7.44,6.88,7.44,7.92Z"/>
    <path class="cls-1" d="M647.42,164.06c3.68,0,8.88-.24,9.92-.24,2.16,0,2.24.64,2.24,5.04,0,2.56-.08,4.08-2.16,4.08-3.36,0-6.72-.16-10-.16h-36.8c-3.28,0-6.64.16-10,.16-2.08,0-2.16-1.52-2.16-4,0-4.48.16-5.12,2.24-5.12,1.04,0,6.56.24,9.92.24h36.8Z"/>
    <path class="cls-1" d="M709.98,142.46c.56.32,2.08.88,2.08,1.6,0,.48-.56.8-.96.96-1.76.8-2.16,2-4.24,5.92-4.8,9.2-9.12,18.64-13.84,27.92-.24.56-.72,1.44-.72,2.08,0,.8.64,1.44,1.44,1.44.56,0,1.84-.16,2.4-.24,6.96-.72,13.84-1.44,20.72-2.32.88-.08,2.24-.16,2.24-1.36,0-1.44-6.08-6.72-7.44-7.92-.56-.56-1.44-1.2-1.44-2,0-1.28,3.92-5.12,5.36-5.12,2,0,11.52,10.56,13.28,12.56,1.44,1.76,8.48,10.4,8.48,12.16,0,1.92-4.48,5.2-6.24,5.2-.96,0-1.6-1.2-2-2-2.08-3.36-2.72-4.72-4.4-4.72-.24,0-39.68,4.88-44.16,5.44-2.72.32-2.72.16-3.6,1.36-.24.32-.48.64-.96.64-.96,0-1.52-2.4-2.16-5.44-.16-.96-.32-1.92-.64-2.96-.08-.4-.24-.8-.24-1.2,0-.88.72-.96,1.76-.96h1.36c5.44,0,5.68-.32,6.88-2.56,2.96-5.6,17.04-34.8,18.56-39.76.24-.64.48-1.6,1.36-1.6.96,0,5.92,2.32,7.12,2.88Z"/>
    <path class="cls-1" d="M794.14,148.22c2.08,0,4.08-.08,6.16-.08,3.2,0,5.28.32,5.28,4.08,0,2.4-.08,4.8-.08,7.2v26.96c0,2.4.08,4.88.08,7.28s-.48,2.48-4.8,2.48c-3.68,0-3.76-.16-4.08-1.68-.4-1.84-1.44-1.84-3.84-1.84h-26c-3.52,0-8.24.16-10.32.16s-1.92-1.12-1.92-4.64c0-3.2-.16-4.24,1.76-4.24s6.56.24,10.4.24h27.6c1.36,0,2.4-1.12,2.4-2.4v-22.64c0-1.36-1.04-2.4-2.4-2.4h-27.6c-3.44,0-8.32.24-10.32.24-1.76,0-1.92-1.12-1.92-5.12,0-3.2.32-3.84,1.76-3.84,1.2,0,2.32.16,3.44.16,2.32.08,4.64.08,6.96.08h27.44Z"/>
    <path class="cls-1" d="M874.46,164.06c3.68,0,8.88-.24,9.92-.24,2.16,0,2.24.64,2.24,5.04,0,2.56-.08,4.08-2.16,4.08-3.36,0-6.72-.16-10-.16h-36.8c-3.28,0-6.64.16-10,.16-2.08,0-2.16-1.52-2.16-4,0-4.48.16-5.12,2.24-5.12,1.04,0,6.56.24,9.92.24h36.8Z"/>
    <path class="cls-1" d="M943.74,145.58c1.28,0,2.64,0,3.44-.16.48,0,1.28-.16,1.76-.16,1.68,0,5.12,4.4,5.12,5.44,0,.4-.88,1.68-1.76,3.12-.48.72-.96,1.52-1.28,2.08-3.2,5.36-6.4,10.4-10.4,15.2-.4.48-.64.88-.64,1.52,0,.96.48,1.44,1.2,1.92,4.4,2.88,9.52,6.8,13.52,10.32,1.92,1.68,3.92,3.52,5.76,5.44.32.32.56.64.56,1.12,0,1.68-4.4,6.4-6.08,6.4-.88,0-1.44-.56-2-1.2-5.76-6.88-10.56-10.72-17.68-15.84-.64-.48-1.12-.72-1.84-.72-1.04,0-1.76.8-2.4,1.36-5.92,5.52-12.8,10.32-20,14-.72.4-2.8,1.52-3.52,1.52-1.68,0-5.36-5.36-5.36-6.8,0-.96.96-1.36,1.68-1.6,14.16-5.44,27.6-17.68,35.68-30.32.4-.64,1.36-2,1.36-2.72,0-1.2-1.12-1.36-2.32-1.36h-16.56c-3.44,0-6.88.16-10.32.16-2.16,0-2-1.2-2-4.88,0-2.8-.08-4,1.92-4,3.44,0,6.88.16,10.4.16h21.76Z"/>
  </g>
  <g>
    <path class="cls-1" d="M119.21,82.78c-.45,0-.6.2-.8.7-.25.45-.65.5-1.9.5-1.55,0-2.1,0-2.1-1.1,0-.95.05-1.95.05-2.9v-8.7c0-.9-.05-1.8-.05-2.75,0-1.4.65-2,2.05-2s2.7.05,4.05.05h5.7c.8,0,1.2-.35,1.2-1.2v-.9c0-.85-.4-1.2-1.2-1.2h-11.5c-1.95,0-3.95.1-5.95.1-1.05,0-1.05-.5-1.05-1.85s0-1.9,1.05-1.9c2,0,4,.15,5.95.15h11.3c.95,0,1.35-.4,1.4-1.35,0-.95-.05-1.85-.2-2.8-.05-.15-.05-.4-.05-.55,0-.55.4-.65.85-.65.7,0,2.8.15,3.6.2.35.05,1.05.1,1.05.65,0,.3-.25.45-.65.7-.55.4-.55,1-.55,2.45,0,.95.4,1.35,1.35,1.35h11.65c2,0,3.95-.15,5.95-.15,1.05,0,1.05.55,1.05,1.9s0,1.85-1.05,1.85c-2,0-3.95-.1-5.95-.1h-11.8c-.85,0-1.25.35-1.25,1.2v.9c0,.85.4,1.2,1.25,1.2h5.8c1.35,0,2.7-.05,4-.05,1.4,0,2.1.55,2.1,1.95,0,.95-.05,1.9-.05,2.8v8.7c0,.95.05,1.95.05,2.9,0,1.1-.5,1.1-2.15,1.1-1.2,0-1.7-.05-1.95-.5-.15-.4-.25-.7-.75-.7h-4.55c-.3,0-.6.1-.6.45,0,.2.1.3.2.45,4.6,4.05,9.95,7.15,15.4,9.9,1.3.65,1.6.8,1.6,1.25,0,.75-1.2,2.7-2,2.7-.95,0-6.1-3.1-7.2-3.8-3.65-2.3-7.05-4.9-10.2-7.85-.1-.15-.25-.2-.4-.2-.4,0-.5.35-.55.65v3.65c0,2.45.15,4.9.15,7.35,0,1.55-.45,1.7-2.1,1.7-1.8,0-2.2-.2-2.2-1.75,0-2.45.15-4.85.15-7.3v-3.7c0-.05-.05-.65-.55-.65-.15,0-.3.1-.4.2-3.85,3.75-8.2,6.95-12.9,9.5-.8.4-3.8,2-4.55,2-.85,0-1.95-1.9-1.95-2.7,0-.55.75-.9,1.55-1.25,5.2-2.35,11.05-5.9,15.25-9.7.15-.15.2-.25.2-.45,0-.35-.3-.45-.6-.45h-4.25ZM126.22,73.13c.7,0,1.2-.5,1.2-1.2v-.95c0-.7-.5-1.2-1.2-1.2h-6.6c-.7,0-1.2.5-1.2,1.2v.95c0,.7.5,1.2,1.2,1.2h6.6ZM126.22,79.58c.7,0,1.2-.5,1.2-1.2v-.95c0-.7-.5-1.2-1.2-1.2h-6.6c-.7,0-1.2.5-1.2,1.2v.95c0,.7.5,1.2,1.2,1.2h6.6ZM139.27,73.13c.75,0,1.2-.5,1.2-1.2v-.95c0-.7-.45-1.2-1.2-1.2h-6.6c-.75,0-1.25.5-1.25,1.2v.95c0,.7.5,1.2,1.25,1.2h6.6ZM139.27,79.58c.75,0,1.2-.5,1.2-1.2v-.95c0-.7-.45-1.2-1.2-1.2h-6.6c-.75,0-1.25.5-1.25,1.2v.95c0,.7.5,1.2,1.25,1.2h6.6Z"/>
    <path class="cls-1" d="M158.11,91.53c-.05.2-.15.7-.7.7-.45,0-.6-.35-1.1-1.15-.25-.45-1.45-2.65-1.45-3,0-.4.15-.5,2.4-1.25,3.7-1.3,7.35-2.85,10.95-4.5.9-.4,1.15-.9,1.15-1.85v-9.4c0-1-.45-1.4-1.4-1.4h-5.2c-1.9,0-3.75.1-5.6.1-1.1,0-1.15-.45-1.15-2.1s.05-2.05,1.15-2.05c1.85,0,3.7.1,5.6.1h5.2c.95,0,1.4-.4,1.4-1.4v-4.2c0-1.75-.25-3.5-.25-5.2,0-.6.45-.65.9-.65.65,0,2.9.15,3.65.2.4.05,1.1.1,1.1.65,0,.35-.25.45-.65.75-.6.4-.65,1.35-.65,3.35v30.35c0,2.5.15,5,.15,7.5,0,1.7-.45,1.85-2.2,1.85s-2.2-.15-2.2-1.85c0-2.5.15-5,.15-7.5v-2.5c-.05-.2-.05-.9-.75-.9-.2,0-.35.05-.5.1-3.15,1.55-6.3,3-9.5,4.4-.35.2-.45.55-.5.85ZM195.87,63.53c.6,0,1.55,1.8,2.15,2.85.2.3.65,1,.65,1.3s-.25.5-.5.5c-.2,0-.35-.05-.55-.15-.15-.05-.4-.15-.6-.15-.15,0-.35.1-.5.15-3.85,2.1-6.8,3.5-10.9,5.1-.95.35-1.2.8-1.2,1.8v16.55c0,2,.1,2.5,2.15,2.5h5.15c1.6,0,2.65-.3,3.6-6.2.15-1.05.1-1.5,1.05-1.5.9,0,3.1.3,3.1,1.6,0,1.75-1.25,5.6-2.05,7.2-1.25,2.65-2.55,2.85-5.3,2.85h-6.9c-3.5,0-5-1.2-5-4.75,0-1.3.05-2.6.05-3.85v-30c0-1.45-.2-2.9-.2-4.35,0-.55.35-.65.8-.65.8,0,2.85.15,3.75.2.4.05,1.05.1,1.05.65,0,.35-.25.45-.65.7-.55.35-.6,1.2-.6,3.15v9.3c.05.5.2.95.8.95.15,0,.3-.05.45-.1,3.3-1.5,6.55-3.2,9.55-5.3.15-.15.45-.35.65-.35Z"/>
    <path class="cls-1" d="M217.67,83.18c0-.6-.45-.75-.95-.8h-7.35c-2,0-4,.1-6.05.1-1,0-1.05-.55-1.05-1.9,0-1.45.05-1.95,1.1-1.95,2,0,4,.15,6,.15h29.8c2,0,4-.15,6-.15,1.05,0,1.1.45,1.1,1.95s-.1,1.9-1.1,1.9c-2,0-4-.1-6-.1h-17.3c-.15,0-.2.1-.2.2s.05.15.1.15c.4.15,1.35.55,1.35,1,0,.35-.45.45-.7.5-.55.15-.85.3-1.1.8-1.25,2.45-2.35,4.7-3.85,7-.1.15-.15.25-.15.45,0,.45.35.6.75.65,5.35-.2,10.7-.5,16.05-.85.3-.1.6-.2.6-.55,0-.15-.05-.4-.2-.5-.6-.55-1.2-1.1-1.5-1.4-1.45-1.35-2.05-1.8-2.05-2.25,0-.65,1.75-2.05,2.5-2.05.35,0,.7.25.95.5,1.65,1.35,3.95,3.7,5.45,5.3.7.7,4.4,4.45,4.4,5.2,0,.8-1.8,2.05-2.6,2.05-.55,0-.9-.45-1.75-1.5-.25-.3-.55-.7-.9-1.1-.45-.5-.9-.8-1.65-.8-.45,0-1.9.1-3,.2-7.6.75-17.7,1.45-27.6,1.9-.4,0-.5.35-.75.7-.1.2-.3.4-.55.4-.4,0-.65-.35-.9-1.4-.15-.55-.7-2.6-.7-3,0-.45.3-.65.75-.65.7,0,1.4.05,2.1.05,1.35,0,2.7,0,4.1-.05,1.05-.05,1.4-.2,2-1.05,1.85-2.5,3.55-5.75,4.75-8.7.1-.15.1-.25.1-.4ZM228.17,59.13c1,0,1.35-.4,1.4-1.35,0-.8-.1-1.85-.2-2.65,0-.15-.05-.3-.05-.45,0-.5.5-.55.85-.55.65,0,2.95.2,3.65.25.35.05,1,.1,1,.55,0,.3-.3.4-.6.6-.6.4-.65.85-.6,2.3,0,.95.45,1.3,1.35,1.3h5.1c1.75,0,3.5-.1,5.3-.1.95,0,.95.5.95,1.95s0,1.95-.95,1.95c-1.8,0-3.55-.1-5.3-.1h-5.25c-.8,0-1.15.3-1.15,1.1,0,.6.05,1.15.05,1.7,0,1.35-.4,1.45-2.15,1.45-1.55,0-2.1-.05-2.1-1.3,0-.6,0-1.2.05-1.8-.05-.85-.35-1.15-1.2-1.15h-8.1c-.8,0-1.15.3-1.15,1.15,0,.45.05,1.25.05,1.65,0,1.25-.5,1.35-2.1,1.35s-2.15-.05-2.15-1.25c0-.45.05-1.3.05-1.75-.05-.85-.35-1.15-1.2-1.15h-5.2c-1.75,0-3.5.1-5.25.1-.9,0-.95-.45-.95-1.95s.05-1.95.95-1.95c1.75,0,3.5.1,5.25.1h5.05c1,0,1.35-.4,1.4-1.35,0-.8-.05-1.95-.2-2.7v-.45c0-.55.4-.6.8-.6.55,0,2.9.2,3.55.25.3.05,1.1.05,1.1.55,0,.3-.25.4-.6.65-.55.35-.6.85-.6,1.75v.7c0,.9.5,1.2,1.35,1.2h7.8ZM216.22,73.43c-1.85,0-3.75.1-5.65.1-1.1,0-1.15-.5-1.15-1.95s.05-1.95,1.15-1.95c1.9,0,3.8.15,5.65.15h15.75c1.9,0,3.75-.15,5.65-.15,1.15,0,1.15.55,1.15,1.95s0,1.95-1.15,1.95c-1.9,0-3.75-.1-5.65-.1h-15.75Z"/>
    <path class="cls-1" d="M258.01,74.58c0,.25.2.4.4.45.35,0,.85.15.85.55s-.35.55-.75.8c-.5.35-.55,1.05-.55,2.75v12.15c0,2,.1,3.95.1,5.95,0,1.45-.5,1.7-2,1.7s-2.05-.2-2.05-1.75c0-1.95.1-3.95.1-5.9v-10.5c0-.3-.1-.6-.45-.6-.15,0-.25.05-.4.2l-.45.45c-.7.7-1.7,1.9-2.3,1.9-.65,0-2.15-1.6-2.15-2.4,0-.4.4-.8,1.35-1.75,3.25-3.4,6.55-7.45,8.6-11.75.15-.3.25-.65.65-.65.35,0,1.7.7,2.6,1.1.25.1.45.25.6.3.35.2.75.4.75.8s-.45.5-.75.55c-.6.1-.7.2-1.05.75-1,1.55-1.9,3.15-3,4.65-.05.1-.1.15-.1.25ZM262.06,55.33c.35.15.8.35.8.75,0,.3-.4.45-.7.5-.55.05-.7.25-1.8,1.8-.25.4-.6.85-1,1.4-1.4,2-4.95,6.5-6.7,8.1-.3.25-.7.55-1.15.55-.7,0-2.3-1.4-2.3-2.15,0-.4.25-.6.6-.95,2.5-2.4,6.9-7.7,8.5-10.75.15-.25.25-.55.55-.55.4,0,1.45.5,2.3.9.35.15.7.3.9.4ZM267.17,74.23c-.5.3-.55.5-.65,1.5-.4,4.9-1.5,10.3-3.05,14.95-.2.6-.4,1.35-1.2,1.35-.6,0-2.4-.4-2.4-1.3,0-.25.3-1.15.35-1.45,1.55-4.3,2.8-10.9,2.95-15.45,0-.55-.1-1.35.65-1.35.35,0,1.65.25,2,.3,1.1.2,1.85.25,1.85.8,0,.25-.3.5-.5.65ZM272.62,89.78c0,2.45.15,4.9.15,7.4,0,1.45-.4,1.65-2,1.65-1.7,0-2.1-.2-2.1-1.7,0-2.45.15-4.9.15-7.35v-20.3c0-.95-.4-1.4-1.35-1.4-1.25-.05-2.5.1-3.75.1-1.1,0-1.1-.6-1.1-1.95s0-1.9,1.1-1.9c1.2,0,2.5.05,3.7.1,1-.05,1.4-.4,1.4-1.4v-3.15c0-1.55,0-3.35-.2-4.55-.05-.15-.05-.35-.05-.5,0-.5.4-.65.8-.65.7,0,2.7.2,3.45.25.4.05,1.05.1,1.05.6,0,.35-.3.45-.65.7-.55.4-.6,1.25-.6,3.1v4.2c0,1,.4,1.4,1.4,1.4h.15c1.5,0,2.95-.1,4.45-.1,1.15,0,1.1.65,1.1,1.9s.05,1.95-1.1,1.95c-1.5,0-2.95-.1-4.45-.1h-.15c-1,0-1.4.4-1.4,1.4v20.3ZM277.72,62.53c-.55,0-.7-.35-.85-.8-.7-1.6-1.35-2.95-2.2-4.5-.15-.25-.3-.5-.3-.8,0-.7,1.75-1.35,2.25-1.35.65,0,1,.65,2.25,3.2.25.45,1.25,2.45,1.25,2.85,0,.9-1.9,1.4-2.4,1.4ZM278.47,90.53c-1,0-1.15-.65-1.2-1.5-.4-4.7-1.45-10.3-2.6-14.85-.1-.25-.2-.6-.2-.85,0-1,2.4-1.3,2.55-1.3.6,0,.8.45.95.95.5,1.7.9,3.4,1.25,5.1.45,2.15,1.65,9.05,1.65,10.9,0,1.15-1.6,1.55-2.4,1.55ZM285.82,73.93c0-.95-.4-1.4-1.4-1.4h-.4c-1.3,0-2.65.1-3.75.1s-1.15-.7-1.15-1.9,0-1.95,1.15-1.95,2.45.1,3.75.1h4.85c1.3,0,2.6-.1,3.7-.1,1.2,0,1.15.65,1.15,1.95,0,1.6-.1,1.9-1.25,1.9-.45,0-1,0-1.7-.05-.85.05-1.15.35-1.15,1.2v16.9c0,1.1.05,2.25.05,3.35,0,4.45-4.45,4.65-7.8,4.65-.6,0-1.5.05-1.85-.55-.35-.5-.6-2-.6-2.65,0-.6.35-.9.9-.9.2,0,1.15.1,2.2.1,3.3,0,3.3-.8,3.3-3.75v-17ZM284.77,60.68c-1.2,0-2.35.1-3.3.1-1.15,0-1.1-.85-1.1-2,0-.9-.05-1.9,1-1.9,1.15,0,2.25.1,3.4.1h3.55c1.15,0,2.35-.1,3.25-.1,1.15,0,1.15.65,1.15,1.95,0,1.1.05,1.95-1.1,1.95-1,0-2.1-.1-3.3-.1h-3.55Z"/>
    <path class="cls-1" d="M320.97,90.48c0,1,.45,1.4,1.4,1.4h11.15c2,0,4-.1,6.05-.1,1.15,0,1.15.5,1.15,2.1s0,2.05-1.15,2.05c-2.05,0-4.05-.1-6.05-.1h-29.45c-2,0-4,.1-6.05.1-1.1,0-1.2-.45-1.2-2.05s.1-2.1,1.2-2.1c2.05,0,4.05.1,6.05.1h11.2c1,0,1.4-.4,1.4-1.4v-27.1c0-1-.4-1.4-1.4-1.4h-8.8c-1.95,0-3.9.1-5.85.1-1.2,0-1.2-.6-1.2-2.1s0-2.1,1.2-2.1c1.95,0,3.9.1,5.85.1h24.95c1.9,0,3.85-.1,5.8-.1,1.2,0,1.2.5,1.2,2.1s-.05,2.1-1.15,2.1c-1.95,0-3.9-.1-5.85-.1h-9.05c-.95,0-1.4.4-1.4,1.4v27.1Z"/>
    <path class="cls-1" d="M356.92,77.13c-.2,0-.3.2-.3.4v12.65c0,2.25.1,4.55.1,6.8,0,1.6-.35,1.8-2,1.8s-2.05-.15-2.05-1.7c0-2.3.1-4.6.1-6.9v-10.75c0-.15-.05-.3-.25-.3-.15,0-.2.05-.25.15-.75,1.7-5.1,11.25-6.65,11.25-.8,0-2.45-1.5-2.45-2.3,0-.35.3-.7.5-.95,3.25-4.4,6.25-9.75,8.35-14.8.05-.15.1-.3.1-.45,0-.6-.5-.75-1-.8h-1.2c-1.55,0-3.15.1-4.55.1-1,0-1-.6-1-1.9s0-1.95,1-1.95c1.45,0,3,.1,4.55.1h1.45c1,0,1.4-.4,1.4-1.4v-4.05c0-.6-.25-1.15-1-1.15-.2,0-.7.15-.8.15-1.45.3-3.3.7-4.2.7-1.3,0-1.7-2.1-1.7-2.8,0-.85.6-.9,1.25-.95,4.15-.5,10.35-1.75,14-3.75.1-.05.35-.15.5-.15.7,0,2.65,3.3,2.65,3.55s-.25.5-.5.5c-.2,0-.4-.05-.6-.15-.1-.05-.3-.1-.4-.1-.2,0-3.55,1.2-4.1,1.4-1,.35-1.25.75-1.25,1.75v5.05c0,1,.4,1.4,1.4,1.4h.5c1.5,0,3.05-.1,4.5-.1,1,0,1,.55,1,1.95s0,1.9-1,1.9c-1.4,0-3-.1-4.5-.1h-.25c-.4.05-.85.2-.85.7,0,.15.1.3.15.45,1.7,2.85,3.75,5.3,6,7.75.2.2.3.4.3.7,0,.5-1.3,2.4-2.15,2.4-1.1,0-3.9-4.8-4.5-5.9-.05-.1-.15-.2-.3-.2ZM382.72,89.38c0,2.55.15,5.1.15,7.65,0,1.65-.4,1.85-2.2,1.85s-2.25-.15-2.25-1.85c0-2.55.15-5.1.15-7.65v-4.15c0-.6-.25-1.15-.95-1.15-.15,0-.45.05-.6.1l-8.9,2.3c-.55.15-3.95,1.15-4.2,1.15-1.15,0-1.55-2.75-1.55-3.15,0-.7.75-.85,2.6-1.25.55-.15,1.25-.3,2.1-.5l10.2-2.6c1-.25,1.3-.7,1.3-1.7v-18.25c0-1.6,0-3.25-.2-4.6-.05-.2-.05-.45-.05-.65,0-.6.4-.7.9-.7s3.55.25,4.05.3c.4.05.8.25.8.65s-.3.5-.7.75c-.6.4-.65,1.35-.65,3.35v18.1c.05.55.25,1.1.9,1.1.1,0,.45-.05.55-.1.45-.1,3-.9,3.25-.9.95,0,1.35,2.8,1.35,3.05,0,.75-.55.95-2.3,1.3-.85.2-1.75.4-2.45.6-1,.3-1.3.7-1.3,1.7v5.25ZM371.77,77.73c-.45,0-.9-.45-1.15-.75-1.5-1.55-3.15-2.9-4.85-4.2-.3-.25-.75-.55-.75-1,0-.75,1.6-2.3,2.4-2.3.6,0,3.65,2.7,4.3,3.25.6.5,2.5,2.1,2.5,2.7,0,.85-1.65,2.3-2.45,2.3ZM373.37,65.73c-.5,0-.9-.45-1.2-.8-1.4-1.55-2.95-3-4.6-4.4-.3-.2-.7-.5-.7-.95,0-.75,1.5-2.25,2.3-2.25.3,0,.6.15.8.3,1.45,1.2,2.85,2.45,4.15,3.75.6.6,1.6,1.5,1.6,2.1,0,.8-1.45,2.25-2.35,2.25Z"/>
    <path class="cls-1" d="M410.36,73.58c0-.7-.55-.95-1.2-.95h-11.1c-1.95,0-3.9.1-5.85.1-1,0-1.05-.45-1.05-2.05s.05-2.1,1.05-2.1c1.95,0,3.9.15,5.85.15h11.65c.95,0,1.4-.35,1.5-1.35.1-1.1.1-2.2.1-3.35v-4.2c0-1.45,0-3.1-.15-4.15-.05-.15-.05-.3-.05-.4,0-.65.55-.75,1.05-.75.6,0,1.2.05,1.8.1.25.05.55.05.75.05,1.2.1,2.05.15,2.05.75,0,.25-.25.4-.45.55-.65.45-.7.7-.75,1.5-.15,3.3-.05,6.6-.15,9.9-.05.95.4,1.35,1.3,1.35h11.8c1.95,0,3.9-.15,5.85-.15,1.05,0,1.1.5,1.1,2.1s-.05,2.05-1.1,2.05c-1.95,0-3.9-.1-5.85-.1h-11.35c-.55.05-1.05.2-1.05.85,0,.15,0,.3.05.4,3.4,9.25,9.35,16.45,17.95,21.15.45.25.85.45.85,1,0,.85-1.25,2.85-2.2,2.85-1.4,0-7-4.4-8.25-5.5-4.45-3.9-8.25-9.1-10.5-14.6-.1-.2-.25-.35-.45-.35-.25,0-.4.2-.5.4-3.2,8.75-10.05,15.05-18.2,19.35-.45.25-1.3.7-1.85.7-.95,0-2-2.35-2-3.15,0-.6.7-.9,1.15-1.1,8.9-4.3,15.95-10.75,18.15-20.65,0-.15.05-.25.05-.4Z"/>
    <path class="cls-1" d="M464.22,86.68c-.95,0-1.35.45-1.35,1.4v2.75c0,1.1.05,2.2.05,3.3,0,4.8-5.1,4.85-8.65,4.85-.65,0-1.75.05-2.2-.5-.4-.5-.6-1.75-.6-2.4,0-.7.3-1.1,1.05-1.1.5,0,1.5.1,2.45.1,4,0,3.95-.95,3.95-4v-3c0-.95-.45-1.4-1.4-1.4h-10.85c-2,0-3.95.15-5.95.15-1.05,0-1.05-.55-1.05-1.9s0-1.85,1.05-1.85c2,0,3.95.1,5.95.1h11c.85,0,1.15-.3,1.2-1.15,0-.55-.05-1.1-.15-1.65,0-.15-.05-.3-.05-.45,0-.5.4-.6.8-.6s.75,0,1.1.05h.35c.45,0,.8-.15,1.2-.4.6-.4,3.8-2.75,3.8-3.25,0-.4-.7-.35-1.2-.35h-10.5c-1.75,0-3.5.15-5.25.15-1,0-1.05-.5-1.05-1.8s.05-1.85,1.05-1.85c1.75,0,3.5.1,5.25.1h11.65c1.25,0,2.5-.05,3.75-.05,1.75,0,2.75,1.9,2.75,2.45,0,1.5-7.5,6.8-9,7.75-.25.15-.35.3-.45.65.1.3.3.4.6.4h11.2c2,0,3.95-.1,5.95-.1,1.05,0,1.05.55,1.05,1.85s-.05,1.9-1.05,1.9c-2,0-3.95-.15-5.95-.15h-10.5ZM477.97,64.28c1.55,0,2.75.25,2.75,2.05,0,.9-.1,1.8-.1,2.75v2.15c0,.65.1,1.35.1,2,0,1.15-.65,1.15-2.05,1.15s-2.1,0-2.1-1.1c0-.7.1-1.35.1-2.05v-2.05c0-1-.4-1.4-1.4-1.4h-29.2c-.95,0-1.4.4-1.4,1.4v2.05c0,.6.1,1.4.1,2.05,0,1.1-.7,1.1-2.05,1.1-1.45,0-2.05-.05-2.05-1.15,0-.65.1-1.35.1-2v-2.15c0-.95-.05-1.85-.05-2.7,0-1.85,1.1-2.1,2.65-2.1s3.15.1,4.7.1h17.75c1.05,0,1.5-.15,2.2-.95,2.1-2.5,3.55-4.8,5.2-7.55.15-.25.25-.6.6-.6.45,0,3.9,1.5,3.9,2.15,0,.45-.6.5-.9.55-.35.05-.65.25-.85.5-1,1.7-2.05,3.3-3.3,4.85-.05.15-.15.25-.15.45,0,.45.35.55.75.6,1.55,0,3.15-.1,4.7-.1ZM448.16,63.98c-.55,0-.85-.35-1.1-.8-.95-1.6-1.95-3.15-3.05-4.65-.15-.25-.4-.55-.4-.9,0-.85,1.85-1.8,2.65-1.8.75,0,1.3.8,2.8,3,.4.6,1.75,2.55,1.75,3.15,0,1.05-1.95,2-2.65,2ZM460.06,63.13c-.55,0-.85-.35-1.1-.8-.9-1.7-1.9-3.35-3-4.9-.2-.3-.4-.55-.4-.9,0-.9,1.8-1.8,2.6-1.8.9,0,1.55,1.25,2.9,3.4.4.6,1.65,2.55,1.65,3.15,0,.95-1.9,1.85-2.65,1.85Z"/>
    <path class="cls-1" d="M500.56,87.83c-.9,0-1.35.35-1.35,1.3,0,.65.05,1.3.05,1.95,0,1.1-.4,1.2-1.95,1.2s-1.9-.1-1.9-1.2c0-1.6.05-3.25.05-4.85v-22.25c0-1.2-.05-2.45-.05-3.7,0-1.55.15-2.55,1.95-2.55.75,0,1.45.05,2.15.05h4.4c.7,0,1.35-.05,2.05-.05,1.7,0,2,.75,2,2.3,0,1.35-.05,2.65-.05,3.95v20.6c0,1.65.05,3.3.05,4.95,0,1-.5,1.1-1.85,1.1-1.5,0-1.9-.1-1.9-1.15v-.7c0-.7-.35-.95-1-.95h-2.65ZM504.26,62.83c-.1-.9-.5-1.3-1.35-1.4h-2.35c-.9.1-1.3.5-1.4,1.4v6.45c.1.85.5,1.25,1.35,1.35h2.4c.85-.1,1.25-.5,1.35-1.35v-6.45ZM502.91,84.18c.85-.1,1.25-.5,1.35-1.4v-7.05c-.1-.9-.5-1.3-1.35-1.4h-2.35c-.9.1-1.3.5-1.4,1.4v7.05c.1.85.5,1.25,1.35,1.4h2.4ZM524.57,60.48c0,1,.4,1.4,1.4,1.4h1.85c1.05,0,2.1-.05,3.15-.05,1.6,0,2.3.5,2.3,2.15,0,1-.05,2-.05,3v8.7c0,.95.4,1.3,1.3,1.35.85,0,1.7-.05,2.5-.05,1.15,0,1.1.65,1.1,1.95s0,1.9-1.1,1.9c-1.7,0-3.45-.1-5.15-.1h-5.35c-.55.05-1,.2-1,.85,0,.15,0,.25.05.4,2.55,6.2,6.75,10.5,12.5,13.8.35.2.6.4.6.85,0,.95-1.25,2.45-2.25,2.45-1.25,0-5.5-3.6-6.55-4.55-2.85-2.7-5.15-6-6.65-9.65-.1-.2-.25-.4-.5-.4s-.4.2-.5.4c-2.5,5.65-7.15,10.4-12.65,13.15-.55.3-1.7.85-2.3.85-1.15,0-2.2-1.9-2.2-2.75,0-.55.6-.75,1.05-.9,6.05-2.3,11-7.1,13.2-13.25.05-.1.1-.25.1-.4,0-.65-.55-.8-1.1-.85h-3.15c-1.7,0-3.45.1-5.15.1-1.1,0-1.1-.6-1.1-1.9,0-1.4,0-1.95,1.1-1.95.35,0,.7,0,1.05.05.7-.05,1-.35,1-1v-9.05c0-1-.1-2-.1-3,0-1.65.7-2.15,2.3-2.15,1.05,0,2.1.05,3.2.05h1.95c1,0,1.4-.4,1.4-1.4v-1.45c0-1.15-.05-2.2-.2-3.35v-.5c0-.6.35-.75.85-.75.55,0,3.05.25,3.65.3.4.05.75.2.75.65,0,.35-.35.55-.65.75-.6.4-.65.8-.65,2.6v1.75ZM517.06,65.38c-1,.1-1.3.4-1.4,1.4v8.95c.1.95.4,1.35,1.4,1.35h2.05c.95,0,1.35-.3,1.5-1.3.15-1.3.2-2.45.2-3.75v-5.25c0-1-.4-1.3-1.4-1.4h-2.35ZM525.67,77.08h2.55c.95,0,1.35-.4,1.35-1.35v-8.95c0-1-.4-1.3-1.35-1.4h-2.3c-.95.1-1.35.4-1.35,1.4v5.25c0,1.25-.1,2.5-.15,3.7-.05.95.35,1.35,1.25,1.35Z"/>
    <path class="cls-1" d="M550.96,69.08c0,.4-.35.55-.65.75-.55.35-.6.95-.6,2.9v17.9c0,2.15.1,4.35.1,6.5,0,1.5-.45,1.75-1.95,1.75s-2-.3-2-1.8c0-2.15.1-4.3.1-6.45v-15.3c0-.2-.05-.4-.3-.4-.15,0-.2.05-.3.15-.45.75-2.15,3.4-2.95,3.4-.7,0-2.25-1.75-2.25-2.65,0-.4.5-1.05.75-1.4,4.05-5.5,7.5-12.5,9.1-19.15.1-.45.2-1,.75-1,.35,0,1.9.55,2.35.7,1.2.45,1.9.65,1.9,1.25,0,.3-.4.5-.7.65-.65.25-.7.45-1,1.4-1.05,3.25-2.35,6.35-3.85,9.4,0,.05-.05.15-.05.25,0,.3.2.45.5.5.4.05,1.05.1,1.05.65ZM564.36,75.63c0-.3-.3-.4-.5-.4h-.9c-1.05,0-2.15.05-3.2.05-1.3,0-2.25-.25-2.25-1.75,0-.6.05-1.2.05-1.8v-2.15c0-.25-.1-.5-.4-.5-.15,0-.25.05-.4.15-.3.3-.65.6-1.05.6-.75,0-2.55-1.35-2.55-2.15,0-.4.4-.7.65-.95,3.35-3.45,6.25-7.4,8.3-11.75.1-.25.25-.6.6-.6.1,0,4.3.95,4.3,1.65,0,.35-.35.5-.6.55-.4.1-.65.15-.85.45-.1.15-.1.2-.1.35,0,.35.35.5.65.5h5.1c.75,0,1.55-.05,2.3-.05,2.2,0,2.7,1.6,2.7,1.9,0,.7-1.3,2.3-2,3.2-.2.25-.5.5-.5.85,0,.45.35.55.7.6h3.15c1.1,0,2.15-.1,3.2-.1,1.3,0,2.25.25,2.25,1.75,0,.65-.05,1.25-.05,1.85v3.85c0,.55.05,1.15.05,1.7,0,1.55-.8,1.85-2.15,1.85-1.1,0-2.2-.05-3.3-.05h-1.5c-.6,0-1.1.2-1.1.9,0,.15,0,.25.05.4.35,1.2.8,2.4,1.25,3.55.2.3.45.65.85.65.3,0,.45-.05.75-.25,1.25-1,2.2-2,3.35-3.05.15-.2.35-.4.6-.4.35,0,.95.6,1.35,1.1.1.1.45.5.55.6.4.45,1.05,1.15,1.05,1.45s-.25.45-.5.45c-.15,0-.25-.05-.35-.05-.15-.05-.25-.1-.4-.1-.25,0-.4.05-.55.2-1.1.95-1.95,1.75-3.5,2.9-.35.25-.65.6-.65,1.05,0,.35.1.55.25.85,1.65,2.55,3.3,4.55,5.4,6.8.25.3.8.85.8,1.2,0,.8-1.7,2.2-2.5,2.2-1.05,0-4.25-4.35-4.9-5.3-3.25-4.65-5.1-9.05-6.6-14.45-.1-.4-.3-.6-.7-.7-.35.05-.5.15-.8.35-.4.3-.8.65-1.2.95-.2.15-.4.4-.4.7s.1.55.35.75c3.65,3.55,5.65,8.25,5.65,13.35,0,5.8-2.3,7.65-8,7.65-2.2,0-2.95-.05-2.95-2.55,0-.65.05-1.2.8-1.2.45,0,1.85.15,2.9.15,3,0,3.35-2,3.35-4.55v-1.1c-.1-.4-.25-.7-.7-.7-.2,0-.35.1-.5.2-3.55,2.7-7.75,5.1-11.85,6.9-.5.25-1.9.85-2.45.85-.8,0-1.75-1.5-1.75-2.25,0-.6.65-.85,1.45-1.15,5.4-2.15,9.55-4.35,14.1-7.85.3-.25.5-.5.5-.9,0-.25-.1-.5-.2-.7-.15-.35-.4-.7-.85-.7-.35,0-.55.1-.8.3-3.05,2.25-6.6,4.2-9.7,5.6-.9.4-2.35,1.1-2.85,1.1-.8,0-1.6-1.4-1.6-2.1,0-.6.75-.85,1.4-1.1,3.6-1.35,8.15-3.55,11.15-5.9.3-.2.55-.55.55-.95,0-.35-.15-.6-.5-.9-.2-.2-.35-.3-.6-.3-.2,0-.4.1-.55.2-1.6,1-8.6,5-10.15,5-.8,0-1.7-1.4-1.7-2.15,0-.6.55-.8,1.5-1.15,3.3-1.25,7.1-3.1,10-5.1.1-.1.2-.2.2-.35ZM568.36,68.88c0-.9-.5-1.4-1.35-1.4h-4.35c-.85,0-1.35.5-1.35,1.35v1.85c0,.85.5,1.35,1.35,1.35h4.35c.85,0,1.35-.5,1.35-1.35v-1.8ZM564.47,60.98c-.85,0-1.3.1-1.8.85-.35.5-.6.95-.95,1.4-.1.15-.15.3-.15.5,0,.4.15.65,1.4.65h4.35c.95,0,1.35-.15,1.9-.9.3-.35,1.4-1.75,1.4-2.15s-.65-.35-.95-.35h-5.2ZM571.87,70.68c0,.85.5,1.35,1.35,1.35h4.6c.9,0,1.4-.5,1.4-1.35v-1.8c0-.9-.5-1.4-1.35-1.4h-4.65c-.85,0-1.35.5-1.35,1.35v1.85Z"/>
    <path class="cls-1" d="M614.31,86.68c-.95,0-1.35.45-1.35,1.4v2.75c0,1.1.05,2.2.05,3.3,0,4.8-5.1,4.85-8.65,4.85-.65,0-1.75.05-2.2-.5-.4-.5-.6-1.75-.6-2.4,0-.7.3-1.1,1.05-1.1.5,0,1.5.1,2.45.1,4,0,3.95-.95,3.95-4v-3c0-.95-.45-1.4-1.4-1.4h-10.85c-2,0-3.95.15-5.95.15-1.05,0-1.05-.55-1.05-1.9s0-1.85,1.05-1.85c2,0,3.95.1,5.95.1h11c.85,0,1.15-.3,1.2-1.15,0-.55-.05-1.1-.15-1.65,0-.15-.05-.3-.05-.45,0-.5.4-.6.8-.6s.75,0,1.1.05h.35c.45,0,.8-.15,1.2-.4.6-.4,3.8-2.75,3.8-3.25,0-.4-.7-.35-1.2-.35h-10.5c-1.75,0-3.5.15-5.25.15-1,0-1.05-.5-1.05-1.8s.05-1.85,1.05-1.85c1.75,0,3.5.1,5.25.1h11.65c1.25,0,2.5-.05,3.75-.05,1.75,0,2.75,1.9,2.75,2.45,0,1.5-7.5,6.8-9,7.75-.25.15-.35.3-.45.65.1.3.3.4.6.4h11.2c2,0,3.95-.1,5.95-.1,1.05,0,1.05.55,1.05,1.85s-.05,1.9-1.05,1.9c-2,0-3.95-.15-5.95-.15h-10.5ZM628.07,64.28c1.55,0,2.75.25,2.75,2.05,0,.9-.1,1.8-.1,2.75v2.15c0,.65.1,1.35.1,2,0,1.15-.65,1.15-2.05,1.15s-2.1,0-2.1-1.1c0-.7.1-1.35.1-2.05v-2.05c0-1-.4-1.4-1.4-1.4h-29.2c-.95,0-1.4.4-1.4,1.4v2.05c0,.6.1,1.4.1,2.05,0,1.1-.7,1.1-2.05,1.1-1.45,0-2.05-.05-2.05-1.15,0-.65.1-1.35.1-2v-2.15c0-.95-.05-1.85-.05-2.7,0-1.85,1.1-2.1,2.65-2.1s3.15.1,4.7.1h17.75c1.05,0,1.5-.15,2.2-.95,2.1-2.5,3.55-4.8,5.2-7.55.15-.25.25-.6.6-.6.45,0,3.9,1.5,3.9,2.15,0,.45-.6.5-.9.55-.35.05-.65.25-.85.5-1,1.7-2.05,3.3-3.3,4.85-.05.15-.15.25-.15.45,0,.45.35.55.75.6,1.55,0,3.15-.1,4.7-.1ZM598.26,63.98c-.55,0-.85-.35-1.1-.8-.95-1.6-1.95-3.15-3.05-4.65-.15-.25-.4-.55-.4-.9,0-.85,1.85-1.8,2.65-1.8.75,0,1.3.8,2.8,3,.4.6,1.75,2.55,1.75,3.15,0,1.05-1.95,2-2.65,2ZM610.16,63.13c-.55,0-.85-.35-1.1-.8-.9-1.7-1.9-3.35-3-4.9-.2-.3-.4-.55-.4-.9,0-.9,1.8-1.8,2.6-1.8.9,0,1.55,1.25,2.9,3.4.4.6,1.65,2.55,1.65,3.15,0,.95-1.9,1.85-2.65,1.85Z"/>
    <path class="cls-1" d="M648.91,77.13c-.2,0-.3.2-.3.4v12.65c0,2.25.1,4.55.1,6.8,0,1.6-.35,1.8-2,1.8s-2.05-.15-2.05-1.7c0-2.3.1-4.6.1-6.9v-10.75c0-.15-.05-.3-.25-.3-.15,0-.2.05-.25.15-.75,1.7-5.1,11.25-6.65,11.25-.8,0-2.45-1.5-2.45-2.3,0-.35.3-.7.5-.95,3.25-4.4,6.25-9.75,8.35-14.8.05-.15.1-.3.1-.45,0-.6-.5-.75-1-.8h-1.2c-1.55,0-3.15.1-4.55.1-1,0-1-.6-1-1.9s0-1.95,1-1.95c1.45,0,3,.1,4.55.1h1.45c1,0,1.4-.4,1.4-1.4v-4.05c0-.6-.25-1.15-1-1.15-.2,0-.7.15-.8.15-1.45.3-3.3.7-4.2.7-1.3,0-1.7-2.1-1.7-2.8,0-.85.6-.9,1.25-.95,4.15-.5,10.35-1.75,14-3.75.1-.05.35-.15.5-.15.7,0,2.65,3.3,2.65,3.55s-.25.5-.5.5c-.2,0-.4-.05-.6-.15-.1-.05-.3-.1-.4-.1-.2,0-3.55,1.2-4.1,1.4-1,.35-1.25.75-1.25,1.75v5.05c0,1,.4,1.4,1.4,1.4h.5c1.5,0,3.05-.1,4.5-.1,1,0,1,.55,1,1.95s0,1.9-1,1.9c-1.4,0-3-.1-4.5-.1h-.25c-.4.05-.85.2-.85.7,0,.15.1.3.15.45,1.7,2.85,3.75,5.3,6,7.75.2.2.3.4.3.7,0,.5-1.3,2.4-2.15,2.4-1.1,0-3.9-4.8-4.5-5.9-.05-.1-.15-.2-.3-.2ZM674.72,89.38c0,2.55.15,5.1.15,7.65,0,1.65-.4,1.85-2.2,1.85s-2.25-.15-2.25-1.85c0-2.55.15-5.1.15-7.65v-4.15c0-.6-.25-1.15-.95-1.15-.15,0-.45.05-.6.1l-8.9,2.3c-.55.15-3.95,1.15-4.2,1.15-1.15,0-1.55-2.75-1.55-3.15,0-.7.75-.85,2.6-1.25.55-.15,1.25-.3,2.1-.5l10.2-2.6c1-.25,1.3-.7,1.3-1.7v-18.25c0-1.6,0-3.25-.2-4.6-.05-.2-.05-.45-.05-.65,0-.6.4-.7.9-.7s3.55.25,4.05.3c.4.05.8.25.8.65s-.3.5-.7.75c-.6.4-.65,1.35-.65,3.35v18.1c.05.55.25,1.1.9,1.1.1,0,.45-.05.55-.1.45-.1,3-.9,3.25-.9.95,0,1.35,2.8,1.35,3.05,0,.75-.55.95-2.3,1.3-.85.2-1.75.4-2.45.6-1,.3-1.3.7-1.3,1.7v5.25ZM663.77,77.73c-.45,0-.9-.45-1.15-.75-1.5-1.55-3.15-2.9-4.85-4.2-.3-.25-.75-.55-.75-1,0-.75,1.6-2.3,2.4-2.3.6,0,3.65,2.7,4.3,3.25.6.5,2.5,2.1,2.5,2.7,0,.85-1.65,2.3-2.45,2.3ZM665.36,65.73c-.5,0-.9-.45-1.2-.8-1.4-1.55-2.95-3-4.6-4.4-.3-.2-.7-.5-.7-.95,0-.75,1.5-2.25,2.3-2.25.3,0,.6.15.8.3,1.45,1.2,2.85,2.45,4.15,3.75.6.6,1.6,1.5,1.6,2.1,0,.8-1.45,2.25-2.35,2.25Z"/>
  </g>
  <g>
    <path class="cls-1" d="M30.86,98.75c3.04,0,5.5-2.45,5.5-5.48s-2.46-5.5-5.5-5.5-5.48,2.46-5.48,5.5,2.44,5.48,5.48,5.48"/>
    <path class="cls-1" d="M44.59,80.46c4.06,0,7.32-3.28,7.32-7.32s-3.26-7.32-7.32-7.32-7.32,3.29-7.32,7.32,3.27,7.32,7.32,7.32"/>
    <path class="cls-1" d="M55.16,98.75c4.06,0,7.32-3.25,7.32-7.32s-3.25-7.3-7.32-7.3-7.33,3.27-7.33,7.3,3.29,7.32,7.33,7.32"/>
    <path class="cls-1" d="M59.18,66.22c-.79,1.54-1.24,3.26-1.24,5.09,0,5.91,4.68,10.74,10.52,10.97.19,0,.3.13.3.28,0,.06-.03.08-.05.14h-.02c-.79,1.53-1.24,3.25-1.24,5.08,0,6.08,4.91,11.01,10.97,11.01s11-4.92,11-11.01-4.71-10.74-10.56-10.95h0c-.13-.05-.25-.15-.25-.28,0-.04,0-.07.02-.1.83-1.55,1.29-3.29,1.29-5.14,0-5.93-4.69-10.76-10.57-10.96h.02c-.15,0-.27-.13-.27-.27v-.11h.02c.79-1.54,1.29-3.29,1.29-5.12,0-6.07-4.94-10.99-10.98-10.99s-11,4.92-11,10.99,4.68,10.72,10.54,10.97c.15,0,.28.13.28.27,0,.03-.01.09-.01.1"/>
  </g>
  <g>
    <path class="cls-1" d="M88.5,471.58l48.14,181.43h-22.03l-13.33-51.95h-54.67l-13.06,51.95H11.53l50.86-181.43h26.11ZM74.09,493.07l-22.85,90.31h45.42l-22.58-90.31Z"/>
    <path class="cls-1" d="M187.78,471.58l69.36,143.35v-143.35h19.04v181.43h-21.76l-75.62-154.5v154.5h-19.04v-181.43h28.02Z"/>
    <path class="cls-1" d="M352.61,471.58c51.41,0,82.96,34,82.96,89.49,0,13.87-2.18,27.2-6.53,39.44-12.24,34-39.17,52.5-76.43,52.5h-39.17v-181.43h39.17ZM335.48,634.78h17.14c37.54,0,59.57-26.66,59.57-72.08s-22.3-72.9-59.57-72.9h-17.14v144.98Z"/>
    <path class="cls-1" d="M634.4,563.24v92.21h-14.96l-2.99-25.02c-9.79,18.5-23.12,26.38-43.79,26.38-14.14,0-27.2-4.9-36.72-13.6-16.59-15.5-25.84-44.06-25.84-79.97,0-18.77,2.45-35.63,7.62-51.68,8.98-28.02,30.19-43.79,59.03-43.79,30.74,0,46.78,14.14,56.3,49.78l-19.86,7.62c-4.35-14.69-6.8-20.67-10.88-26.11-5.98-8.43-14.96-12.78-26.38-12.78-3.81,0-7.62.54-11.15,1.63-20.94,6.26-31.28,30.46-31.28,74.53,0,11.42.82,22.3,2.72,32.64,4.9,28.02,19.04,43.25,39.71,43.25,4.62,0,8.7-.82,12.78-2.18,15.78-5.44,24.48-22.85,24.48-48.69v-5.98h-37.26v-18.22h58.48Z"/>
    <path class="cls-1" d="M732.32,471.58l48.14,181.43h-22.03l-13.33-51.95h-54.67l-13.06,51.95h-22.03l50.87-181.43h26.11ZM717.91,493.07l-22.85,90.31h45.42l-22.58-90.31Z"/>
    <path class="cls-1" d="M835.13,471.58l42.71,146.07,42.7-146.07h31.01v181.43h-20.67v-157.22l-46.78,157.22h-16.05l-45.7-157.49v157.49h-19.04v-181.43h31.82Z"/>
    <path class="cls-1" d="M1088.37,471.58v18.22h-76.43v60.11h60.38v18.22h-60.38v66.64h78.61v18.22h-100.64v-181.43h98.47Z"/>
  </g>
</svg>