<?xml version="1.0" encoding="UTF-8"?>
<svg id="_レイヤー_1" data-name="レイヤー 1" xmlns="http://www.w3.org/2000/svg" viewBox="0 0 960 580">
  <defs>
    <style>
      .cls-1 {
        fill: #fff;
      }
    </style>
  </defs>
  <g>
    <path class="cls-1" d="M120.53,319.65c-6.13,31.99-19.06,44.91-45.13,44.91-33.3,0-51.05-26.51-51.05-76.02,0-14.46,1.97-28.04,5.7-40.31,6.79-22.57,23.88-35.93,46.01-35.93,3.94,0,7.89.44,11.39,1.31,18.4,4.16,28.48,17.09,33.96,43.38l-17.09,3.94c-2.41-12.71-4.16-17.96-7.23-22.57-4.82-7.45-11.83-11.17-20.81-11.17-2.85,0-5.7.44-8.54,1.31-16.21,5.26-24.54,25.41-24.54,60.25,0,20.59,3.29,36.59,9.86,47.32,5.92,9.42,12.93,13.58,23.44,13.58,15.99,0,22.57-8.11,27.82-33.96l16.21,3.94Z"/>
    <path class="cls-1" d="M150.98,215.36v62h53.02v-62h17.75v146.13h-17.75v-69.45h-53.02v69.45h-17.75v-146.13h17.75Z"/>
    <path class="cls-1" d="M294.04,215.36l38.78,146.13h-17.75l-10.74-41.85h-44.04l-10.52,41.85h-17.75l40.97-146.13h21.03ZM282.43,232.67l-18.4,72.74h36.59l-18.18-72.74Z"/>
    <path class="cls-1" d="M385.83,215.36c12.71,0,24.1,3.29,30.67,8.98,8.11,7.01,12.71,17.96,12.71,30.89,0,5.48-.88,10.74-2.41,15.56-3.72,10.52-9.86,17.09-21.47,22.78l27.39,67.92h-19.06l-24.54-63.75h-28.04v63.75h-17.75v-146.13h42.5ZM361.07,283.06h22.13c18.18,0,28.48-10.08,28.48-28.26,0-2.41-.22-4.6-.66-6.57-2.63-12.05-11.61-18.18-26.51-18.18h-23.44v53.02Z"/>
    <path class="cls-1" d="M505.45,215.36l38.78,146.13h-17.75l-10.74-41.85h-44.04l-10.52,41.85h-17.75l40.97-146.13h21.03ZM493.83,232.67l-18.4,72.74h36.59l-18.18-72.74Z"/>
    <path class="cls-1" d="M645.22,319.65c-6.13,31.99-19.06,44.91-45.13,44.91-33.3,0-51.05-26.51-51.05-76.02,0-14.46,1.97-28.04,5.7-40.31,6.79-22.57,23.88-35.93,46.01-35.93,3.94,0,7.89.44,11.39,1.31,18.4,4.16,28.48,17.09,33.96,43.38l-17.09,3.94c-2.41-12.71-4.16-17.96-7.23-22.57-4.82-7.45-11.83-11.17-20.81-11.17-2.85,0-5.7.44-8.54,1.31-16.21,5.26-24.54,25.41-24.54,60.25,0,20.59,3.29,36.59,9.86,47.32,5.92,9.42,12.93,13.58,23.44,13.58,15.99,0,22.57-8.11,27.82-33.96l16.21,3.94Z"/>
    <path class="cls-1" d="M734.38,215.36v14.9h-35.05v131.23h-17.75v-131.23h-34.83v-14.9h87.63Z"/>
    <path class="cls-1" d="M824.42,215.36v14.68h-61.56v48.42h48.64v14.68h-48.64v53.68h63.32v14.68h-81.06v-146.13h79.31Z"/>
    <path class="cls-1" d="M884.01,215.36c12.71,0,24.1,3.29,30.67,8.98,8.11,7.01,12.71,17.96,12.71,30.89,0,5.48-.88,10.74-2.41,15.56-3.72,10.52-9.86,17.09-21.47,22.78l27.39,67.92h-19.06l-24.54-63.75h-28.04v63.75h-17.75v-146.13h42.5ZM859.25,283.06h22.13c18.18,0,28.48-10.08,28.48-28.26,0-2.41-.22-4.6-.66-6.57-2.63-12.05-11.61-18.18-26.51-18.18h-23.44v53.02Z"/>
  </g>
  <g>
    <path class="cls-1" d="M48.39,122.14c.88-.13,1.49-.88,1.49-1.76,0-.34-.07-.68-.14-1.08l-.34-1.55c-.41-1.83-.95-4.94-1.49-6.69-.07-.2-.2-.47-.2-.74,0-.88,1.15-.88,2.84-.95,1.62-.07,3.25-.14,4.87-.14.41,0,1.22,0,1.22.61,0,.68-.81,1.15-.81,2.5,0,.68.68,4.39.81,5.34l.27,1.15c.27,1.08,1.08,1.89,2.23,1.76l5.61-.81c1.22-.2,8.65-1.42,9.06-1.42,1.22,0,1.28,1.22,1.49,2.23.14.81.47,2.64.47,3.38,0,1.42-.88,1.49-4.8,1.96-1.35.14-3.04.27-5.21.61l-5.48.81c-1.01.14-1.62,1.15-1.42,2.1l1.42,7.44c.2,1.08,1.15,1.76,2.23,1.62l10.95-1.56c1.15-.13,8.86-1.49,9.19-1.49,1.28,0,1.42,1.01,1.62,2.5.07.27.07.54.14.88.07.61.2,1.55.2,2.1,0,1.49-.68,1.62-4.8,2.1-1.35.13-3.11.34-5.41.68l-10.68,1.55c-1.01.14-1.62,1.08-1.42,2.1l.81,4.46c.34,1.83,2.3,10.48,2.3,11.49,0,.95-.74,1.15-1.49,1.42-1.08.27-3.38.81-4.46.81-1.28,0-1.42-1.29-1.62-2.77,0-.27-.07-.54-.13-.81-.47-2.7-1.08-6.15-1.56-8.79l-.88-4.73c-.2-1.01-1.22-1.76-2.3-1.62l-11.9,1.69c-1.28.2-8.25,1.42-8.86,1.42-.95,0-1.22-.54-1.42-1.35-.2-.68-.68-3.65-.68-4.39,0-1.29.88-1.42,4.46-1.76,1.35-.13,3.18-.34,5.54-.68l11.63-1.69c1.08-.13,1.69-1.08,1.49-2.1l-1.35-7.37c-.2-1.15-1.15-1.89-2.37-1.69l-5.95.88c-1.22.2-8.79,1.42-9.2,1.42-.88,0-1.28-.81-1.42-1.62-.14-.95-.54-3.25-.54-4.06,0-1.29.95-1.42,4.46-1.83,1.42-.14,3.38-.41,5.81-.74l5.68-.81Z"/>
    <path class="cls-1" d="M111.88,134.85c1.08-.2,1.76-1.15,1.49-2.3l-.68-3.11c-.07-.34-.61-2.7-1.08-4.67-.27-1.28-.61-2.37-.61-2.5,0-.61.61-.74,1.08-.81,1.35-.14,3.25-.27,4.6-.27.74,0,1.89.07,1.89,1.01,0,.27-.14.54-.2.74-.14.27-.27.47-.27.74,0,.68.68,3.79.88,4.67l.61,3.04c.2,1.08,1.15,1.69,2.16,1.49l10.95-2.23c.68-.14,5.68-1.22,5.75-1.22,1.08,0,4.33,2.91,4.33,4.19,0,.54-.34.95-.74,1.28-1.76,1.83-3.45,4.4-4.87,6.56-.74,1.15-3.45,5.27-4.19,6.02-.41.47-.81.74-1.42.74-.95,0-4.6-1.42-4.6-2.71,0-.54.54-1.08.81-1.49.68-.74,4.53-5.68,4.53-6.29,0-.41-.34-.74-.74-.74-.27,0-.54.07-.74.13l-7.78,1.56c-.81.13-1.49.88-1.49,1.76v.47l2.84,13.79c.34,1.49,1.62,6.76,1.62,7.84,0,.88-.54,1.08-1.62,1.42-.74.2-2.7.61-3.38.61-1.22,0-1.56-1.28-2.03-4.46-.2-1.08-.41-2.5-.74-4.12l-2.84-13.79c-.2-.95-.95-1.49-1.83-1.49-.14,0-.41.07-.47.07l-4.87,1.01c-.88.2-6.83,1.42-7.1,1.42-.74,0-1.01-.41-1.28-1.01-.2-.61-.74-3.25-.74-3.92,0-1.08.68-1.22,4.67-1.89.95-.14,2.03-.34,3.38-.61l4.73-.95Z"/>
    <path class="cls-1" d="M197.21,126.73c1.55,0,4.67,0,6.08-.13.34-.07.88-.14,1.22-.14,1.42,0,4.8,3.25,4.8,4.46,0,.47-.54,1.76-.88,2.77-1.08,3.25-2.16,6.08-3.92,9.13-3.38,6.02-8.59,11.7-14,15.96-1.89,1.56-9.19,6.76-11.29,6.76-1.56,0-4.67-3.85-4.67-5,0-.81,1.69-1.42,2.37-1.76,8.11-3.65,16.43-11.43,20.76-19.2.47-.88,1.83-3.52,1.83-4.4,0-1.62-1.83-1.49-2.91-1.49h-25.15c-2.84,0-5.68.14-8.59.14-1.89,0-1.89-.68-1.89-3.31,0-3.45.07-3.92,1.96-3.92,2.84,0,5.75.13,8.65.13h25.62ZM192.68,112.13c2.77,0,6.22-.2,7.98-.2s1.83.74,1.83,4.12c0,2.3,0,3.18-1.83,3.18-2.7,0-5.34-.13-7.98-.13h-16.56c-2.64,0-5.27.13-7.91.13-1.89,0-1.89-.81-1.89-3.31,0-3.18.14-3.99,1.83-3.99,1.89,0,5.34.2,7.98.2h16.56Z"/>
    <path class="cls-1" d="M262.79,119.43c1.22,0,2.23-.07,3.79-.41.2,0,.47-.07.74-.07,1.35,0,4.33,3.72,4.33,4.6,0,.34-.27.81-.81,1.69-.54.81-1.22,1.96-2.1,3.65-6.63,12.85-13.25,22.72-25.69,30.76-1.49.95-7.84,4.94-9.26,4.94s-5.75-3.31-5.75-4.6c0-.68.81-1.01,1.35-1.22,10.89-4.87,19.4-11.76,26.1-21.64,1.15-1.69,5.21-8.25,5.21-9.94,0-.88-1.08-.95-2.03-.95h-12.85c-1.55,0-1.96.68-2.84,1.89-1.28,1.83-9.06,11.09-10.89,11.09-.81,0-5.75-2.57-5.75-3.99,0-.47.27-.74.61-.95,7.1-5.61,14.94-15.69,18.05-24.21.27-.68.47-1.62,1.08-1.62.34,0,2.16.81,3.58,1.49.61.34,4.06,1.62,4.06,2.37,0,.34-.34.61-.61.74-.95.34-1.15.68-2.3,2.77-.27.54-1.22,1.89-1.22,2.43,0,.74.47,1.08,1.15,1.15h12.04Z"/>
    <path class="cls-1" d="M326.89,118.75c1.35,0,2.97-.07,4.12-.34.2-.07.47-.13.68-.13,1.15,0,3.52,3.52,3.52,4.6,0,.41-.2.68-.41,1.01-.81,1.22-1.15,1.96-1.69,3.31-1.89,4.33-4.06,8.52-6.42,12.58-.27.41-.47.81-.47,1.35,0,.88.61,1.28,1.22,1.76.81.61,3.79,2.64,3.79,3.52,0,1.15-3.04,5.14-4.33,5.14-.41,0-.74-.27-1.01-.54-.95-.81-1.83-1.49-2.77-2.3-.41-.34-.88-.68-1.49-.68-.95,0-1.69.95-2.3,1.62-4.19,4.67-9.26,8.52-14.74,11.43-1.49.81-6.76,3.45-8.18,3.45-1.76,0-4.87-4.33-4.87-5.27,0-.81,1.15-1.01,2.91-1.56,7.03-2.23,14.27-6.76,19.34-12.17.47-.47,1.01-1.01,1.01-1.69s-.34-1.08-.81-1.42c-1.55-1.01-5.07-2.84-6.76-3.65-.68-.27-2.03-.74-2.03-1.49,0-.95,2.64-5.07,4.12-5.07,1.15,0,7.37,3.58,8.72,4.39.41.2.81.41,1.28.41,1.28,0,1.89-1.29,3.72-4.87.07-.2.2-.54.41-.95.68-1.42,1.76-3.79,1.76-4.46,0-1.42-1.76-1.35-2.77-1.35h-12.91c-1.62,0-2.1.54-2.97,1.76-2.23,3.11-6.08,7.71-8.79,10.41-.54.54-1.35,1.28-2.16,1.28-1.22,0-5.61-2.84-5.61-3.99,0-.54.61-1.01,1.01-1.28,6.76-5.21,14.87-16.23,17.65-24.27.2-.54.47-1.69,1.22-1.69.54,0,1.89.68,3.79,1.62.61.27,3.99,1.76,3.99,2.3,0,.41-.34.61-.68.74-1.01.41-1.08.61-2.03,2.23-.27.47-.61,1.08-1.08,1.83-.2.41-.54.95-.54,1.42,0,.68.61.95,1.22,1.01h12.37Z"/>
    <path class="cls-1" d="M392.34,132.28c3.11,0,7.5-.2,8.38-.2,1.83,0,1.89.54,1.89,4.26,0,2.16-.07,3.45-1.83,3.45-2.84,0-5.68-.13-8.45-.13h-31.1c-2.77,0-5.61.13-8.45.13-1.76,0-1.83-1.28-1.83-3.38,0-3.79.14-4.33,1.89-4.33.88,0,5.54.2,8.38.2h31.1Z"/>
    <path class="cls-1" d="M433.66,136.54c0,4.46-2.97,8.18-8.11,8.18-4.19,0-7.37-2.91-7.37-7.1s2.84-8.18,8.25-8.18c4.06,0,7.23,2.84,7.23,7.1Z"/>
    <path class="cls-1" d="M492.28,122.95c2.84,0,5.68-.14,8.45-.14,2.03,0,1.96.88,1.96,4.67,0,1.96-.2,2.64-1.96,2.64-2.84,0-5.61-.14-8.45-.14h-3.11c-2.03,0-2.03,2.16-2.1,2.64-.95,12.31-4.67,21.64-14.54,29.55-1.15.95-5.14,3.99-6.56,3.99s-5-3.52-5-4.73c0-.74,1.08-1.22,1.83-1.62,4.39-2.43,8.72-5.88,11.63-10.01,2.57-3.72,3.72-7.37,4.6-11.7.27-1.35.74-4.8.74-6.15,0-1.08-.74-1.96-1.89-1.96h-8.92c-1.49,0-2.16.27-2.97,1.56-1.35,2.1-8.86,12.78-10.89,12.78-1.35,0-5.68-2.7-5.68-4.12,0-.54.74-1.08,1.08-1.42,7.91-7.17,14.87-19,16.97-29.48.14-.81.27-1.56.88-1.56s3.52.95,4.33,1.15c.68.2,3.99,1.01,3.99,1.83,0,.41-.61.74-.95.95-.95.61-1.35,1.69-2.03,3.72-.47,1.28-1.01,2.91-1.89,5-.2.41-.41.88-.41,1.29,0,.88.54,1.22,1.28,1.28h19.61ZM500.39,116.05c0,1.01-2.43,3.04-3.31,3.04-.34,0-.61-.34-.88-.61-1.42-1.83-3.18-3.85-4.8-5.48-.27-.27-.61-.61-.61-.95,0-.81,2.57-2.77,3.31-2.77.61,0,6.29,5.95,6.29,6.76ZM507.15,111.45c0,.95-2.43,3.04-3.25,3.04-.41,0-.68-.41-.88-.68-1.42-1.76-3.31-3.85-4.87-5.41-.27-.2-.61-.54-.61-.88,0-.81,2.5-2.77,3.31-2.77.61,0,6.29,5.81,6.29,6.69Z"/>
    <path class="cls-1" d="M555.84,132.28c3.11,0,7.5-.2,8.38-.2,1.83,0,1.89.54,1.89,4.26,0,2.16-.07,3.45-1.83,3.45-2.84,0-5.68-.13-8.45-.13h-31.1c-2.77,0-5.61.13-8.45.13-1.76,0-1.83-1.28-1.83-3.38,0-3.79.14-4.33,1.89-4.33.88,0,5.54.2,8.38.2h31.1Z"/>
    <path class="cls-1" d="M608.71,114.02c.47.27,1.76.74,1.76,1.35,0,.41-.47.68-.81.81-1.49.68-1.83,1.69-3.58,5-4.06,7.78-7.71,15.75-11.7,23.6-.2.47-.61,1.22-.61,1.76,0,.68.54,1.22,1.22,1.22.47,0,1.56-.13,2.03-.2,5.88-.61,11.7-1.22,17.51-1.96.74-.07,1.89-.13,1.89-1.15,0-1.22-5.14-5.68-6.29-6.69-.47-.47-1.22-1.01-1.22-1.69,0-1.08,3.31-4.33,4.53-4.33,1.69,0,9.74,8.92,11.22,10.62,1.22,1.49,7.17,8.79,7.17,10.28,0,1.62-3.79,4.39-5.27,4.39-.81,0-1.35-1.01-1.69-1.69-1.76-2.84-2.3-3.99-3.72-3.99-.2,0-33.54,4.12-37.32,4.6-2.3.27-2.3.14-3.04,1.15-.2.27-.41.54-.81.54-.81,0-1.28-2.03-1.83-4.6-.13-.81-.27-1.62-.54-2.5-.07-.34-.2-.68-.2-1.01,0-.74.61-.81,1.49-.81h1.15c4.6,0,4.8-.27,5.81-2.16,2.5-4.73,14.4-29.41,15.69-33.6.2-.54.41-1.35,1.15-1.35.81,0,5,1.96,6.02,2.43Z"/>
    <path class="cls-1" d="M679.85,118.89c1.76,0,3.45-.07,5.21-.07,2.7,0,4.46.27,4.46,3.45,0,2.03-.07,4.06-.07,6.08v22.79c0,2.03.07,4.12.07,6.15s-.41,2.1-4.06,2.1c-3.11,0-3.18-.13-3.45-1.42-.34-1.55-1.22-1.55-3.25-1.55h-21.97c-2.97,0-6.96.13-8.72.13s-1.62-.95-1.62-3.92c0-2.71-.14-3.58,1.49-3.58s5.54.2,8.79.2h23.33c1.15,0,2.03-.95,2.03-2.03v-19.13c0-1.15-.88-2.03-2.03-2.03h-23.33c-2.91,0-7.03.2-8.72.2-1.49,0-1.62-.95-1.62-4.33,0-2.7.27-3.25,1.49-3.25,1.01,0,1.96.14,2.91.14,1.96.07,3.92.07,5.88.07h23.19Z"/>
    <path class="cls-1" d="M747.73,132.28c3.11,0,7.5-.2,8.38-.2,1.83,0,1.89.54,1.89,4.26,0,2.16-.07,3.45-1.83,3.45-2.84,0-5.68-.13-8.45-.13h-31.1c-2.77,0-5.61.13-8.45.13-1.76,0-1.83-1.28-1.83-3.38,0-3.79.14-4.33,1.89-4.33.88,0,5.54.2,8.38.2h31.1Z"/>
    <path class="cls-1" d="M806.29,116.66c1.08,0,2.23,0,2.91-.13.41,0,1.08-.14,1.49-.14,1.42,0,4.33,3.72,4.33,4.6,0,.34-.74,1.42-1.49,2.64-.41.61-.81,1.29-1.08,1.76-2.7,4.53-5.41,8.79-8.79,12.85-.34.41-.54.74-.54,1.28,0,.81.41,1.22,1.01,1.62,3.72,2.43,8.05,5.75,11.43,8.72,1.62,1.42,3.31,2.98,4.87,4.6.27.27.47.54.47.95,0,1.42-3.72,5.41-5.14,5.41-.74,0-1.22-.47-1.69-1.01-4.87-5.81-8.92-9.06-14.94-13.39-.54-.41-.95-.61-1.56-.61-.88,0-1.49.68-2.03,1.15-5,4.67-10.82,8.72-16.9,11.83-.61.34-2.37,1.29-2.98,1.29-1.42,0-4.53-4.53-4.53-5.75,0-.81.81-1.15,1.42-1.35,11.97-4.6,23.33-14.94,30.15-25.62.34-.54,1.15-1.69,1.15-2.3,0-1.01-.95-1.15-1.96-1.15h-14c-2.91,0-5.81.14-8.72.14-1.83,0-1.69-1.01-1.69-4.12,0-2.37-.07-3.38,1.62-3.38,2.91,0,5.81.13,8.79.13h18.39Z"/>
  </g>
  <g>
    <path class="cls-1" d="M109.41,63.58c-.38,0-.51.17-.68.59-.21.38-.55.42-1.61.42-1.31,0-1.77,0-1.77-.93,0-.8.04-1.65.04-2.45v-7.35c0-.76-.04-1.52-.04-2.32,0-1.18.55-1.69,1.73-1.69s2.28.04,3.42.04h4.82c.68,0,1.01-.3,1.01-1.01v-.76c0-.72-.34-1.01-1.01-1.01h-9.72c-1.65,0-3.34.08-5.03.08-.89,0-.89-.42-.89-1.56s0-1.61.89-1.61c1.69,0,3.38.13,5.03.13h9.55c.8,0,1.14-.34,1.18-1.14,0-.8-.04-1.56-.17-2.37-.04-.13-.04-.34-.04-.46,0-.46.34-.55.72-.55.59,0,2.37.13,3.04.17.3.04.89.08.89.55,0,.25-.21.38-.55.59-.46.34-.46.85-.46,2.07,0,.8.34,1.14,1.14,1.14h9.85c1.69,0,3.34-.13,5.03-.13.89,0,.89.46.89,1.61s0,1.56-.89,1.56c-1.69,0-3.34-.08-5.03-.08h-9.98c-.72,0-1.06.3-1.06,1.01v.76c0,.72.34,1.01,1.06,1.01h4.9c1.14,0,2.28-.04,3.38-.04,1.18,0,1.78.47,1.78,1.65,0,.8-.04,1.61-.04,2.37v7.35c0,.8.04,1.65.04,2.45,0,.93-.42.93-1.82.93-1.01,0-1.44-.04-1.65-.42-.13-.34-.21-.59-.63-.59h-3.85c-.25,0-.51.08-.51.38,0,.17.08.25.17.38,3.89,3.42,8.41,6.04,13.02,8.37,1.1.55,1.35.68,1.35,1.06,0,.63-1.01,2.28-1.69,2.28-.8,0-5.16-2.62-6.09-3.21-3.09-1.94-5.96-4.14-8.62-6.64-.08-.13-.21-.17-.34-.17-.34,0-.42.3-.46.55v3.08c0,2.07.13,4.14.13,6.21,0,1.31-.38,1.44-1.78,1.44-1.52,0-1.86-.17-1.86-1.48,0-2.07.13-4.1.13-6.17v-3.13s-.04-.55-.46-.55c-.13,0-.25.08-.34.17-3.25,3.17-6.93,5.88-10.9,8.03-.68.34-3.21,1.69-3.85,1.69-.72,0-1.65-1.61-1.65-2.28,0-.47.63-.76,1.31-1.06,4.4-1.99,9.34-4.99,12.89-8.2.13-.13.17-.21.17-.38,0-.3-.25-.38-.51-.38h-3.59ZM115.33,55.42c.59,0,1.01-.42,1.01-1.01v-.8c0-.59-.42-1.01-1.01-1.01h-5.58c-.59,0-1.01.42-1.01,1.01v.8c0,.59.42,1.01,1.01,1.01h5.58ZM115.33,60.87c.59,0,1.01-.42,1.01-1.01v-.8c0-.59-.42-1.01-1.01-1.01h-5.58c-.59,0-1.01.42-1.01,1.01v.8c0,.59.42,1.01,1.01,1.01h5.58ZM126.36,55.42c.63,0,1.01-.42,1.01-1.01v-.8c0-.59-.38-1.01-1.01-1.01h-5.58c-.63,0-1.06.42-1.06,1.01v.8c0,.59.42,1.01,1.06,1.01h5.58ZM126.36,60.87c.63,0,1.01-.42,1.01-1.01v-.8c0-.59-.38-1.01-1.01-1.01h-5.58c-.63,0-1.06.42-1.06,1.01v.8c0,.59.42,1.01,1.06,1.01h5.58Z"/>
    <path class="cls-1" d="M142.29,70.98c-.04.17-.13.59-.59.59-.38,0-.51-.3-.93-.97-.21-.38-1.23-2.24-1.23-2.54,0-.34.13-.42,2.03-1.06,3.13-1.1,6.21-2.41,9.26-3.8.76-.34.97-.76.97-1.56v-7.95c0-.85-.38-1.18-1.18-1.18h-4.4c-1.61,0-3.17.08-4.73.08-.93,0-.97-.38-.97-1.78s.04-1.73.97-1.73c1.56,0,3.13.08,4.73.08h4.4c.8,0,1.18-.34,1.18-1.18v-3.55c0-1.48-.21-2.96-.21-4.4,0-.51.38-.55.76-.55.55,0,2.45.13,3.09.17.34.04.93.08.93.55,0,.3-.21.38-.55.63-.51.34-.55,1.14-.55,2.83v25.66c0,2.11.13,4.23.13,6.34,0,1.44-.38,1.56-1.86,1.56s-1.86-.13-1.86-1.56c0-2.11.13-4.23.13-6.34v-2.11c-.04-.17-.04-.76-.63-.76-.17,0-.3.04-.42.08-2.66,1.31-5.33,2.54-8.03,3.72-.3.17-.38.46-.42.72ZM174.2,47.31c.51,0,1.31,1.52,1.82,2.41.17.25.55.84.55,1.1s-.21.42-.42.42c-.17,0-.3-.04-.46-.13-.13-.04-.34-.13-.51-.13-.13,0-.3.08-.42.13-3.25,1.78-5.75,2.96-9.21,4.31-.8.3-1.01.68-1.01,1.52v13.99c0,1.69.08,2.11,1.82,2.11h4.35c1.35,0,2.24-.25,3.04-5.24.13-.89.08-1.27.89-1.27.76,0,2.62.25,2.62,1.35,0,1.48-1.06,4.73-1.73,6.09-1.06,2.24-2.16,2.41-4.48,2.41h-5.83c-2.96,0-4.23-1.01-4.23-4.02,0-1.1.04-2.2.04-3.25v-25.36c0-1.23-.17-2.45-.17-3.68,0-.46.3-.55.68-.55.68,0,2.41.13,3.17.17.34.04.89.08.89.55,0,.3-.21.38-.55.59-.46.3-.51,1.01-.51,2.66v7.86c.04.42.17.8.68.8.13,0,.25-.04.38-.08,2.79-1.27,5.54-2.71,8.07-4.48.13-.13.38-.3.55-.3Z"/>
    <path class="cls-1" d="M192.62,63.92c0-.51-.38-.63-.8-.68h-6.21c-1.69,0-3.38.08-5.11.08-.85,0-.89-.46-.89-1.61,0-1.23.04-1.65.93-1.65,1.69,0,3.38.13,5.07.13h25.19c1.69,0,3.38-.13,5.07-.13.89,0,.93.38.93,1.65s-.08,1.61-.93,1.61c-1.69,0-3.38-.08-5.07-.08h-14.62c-.13,0-.17.08-.17.17s.04.13.08.13c.34.13,1.14.46,1.14.84,0,.3-.38.38-.59.42-.47.13-.72.25-.93.68-1.06,2.07-1.99,3.97-3.25,5.92-.08.13-.13.21-.13.38,0,.38.3.51.63.55,4.52-.17,9.04-.42,13.57-.72.25-.08.51-.17.51-.46,0-.13-.04-.34-.17-.42-.51-.46-1.01-.93-1.27-1.18-1.23-1.14-1.73-1.52-1.73-1.9,0-.55,1.48-1.73,2.11-1.73.3,0,.59.21.8.42,1.39,1.14,3.34,3.13,4.61,4.48.59.59,3.72,3.76,3.72,4.4,0,.68-1.52,1.73-2.2,1.73-.46,0-.76-.38-1.48-1.27-.21-.25-.46-.59-.76-.93-.38-.42-.76-.68-1.39-.68-.38,0-1.61.08-2.54.17-6.42.63-14.96,1.23-23.33,1.61-.34,0-.42.3-.63.59-.08.17-.25.34-.46.34-.34,0-.55-.3-.76-1.18-.13-.46-.59-2.2-.59-2.54,0-.38.25-.55.63-.55.59,0,1.18.04,1.78.04,1.14,0,2.28,0,3.47-.04.89-.04,1.18-.17,1.69-.89,1.56-2.11,3-4.86,4.02-7.35.08-.13.08-.21.08-.34ZM201.5,43.59c.85,0,1.14-.34,1.18-1.14,0-.68-.08-1.56-.17-2.24,0-.13-.04-.25-.04-.38,0-.42.42-.46.72-.46.55,0,2.49.17,3.09.21.3.04.85.08.85.46,0,.25-.25.34-.51.51-.51.34-.55.72-.51,1.94,0,.8.38,1.1,1.14,1.1h4.31c1.48,0,2.96-.08,4.48-.08.8,0,.8.42.8,1.65s0,1.65-.8,1.65c-1.52,0-3-.08-4.48-.08h-4.44c-.68,0-.97.25-.97.93,0,.51.04.97.04,1.44,0,1.14-.34,1.23-1.82,1.23-1.31,0-1.77-.04-1.77-1.1,0-.51,0-1.01.04-1.52-.04-.72-.3-.97-1.01-.97h-6.85c-.68,0-.97.25-.97.97,0,.38.04,1.06.04,1.39,0,1.06-.42,1.14-1.77,1.14s-1.82-.04-1.82-1.06c0-.38.04-1.1.04-1.48-.04-.72-.3-.97-1.01-.97h-4.4c-1.48,0-2.96.08-4.44.08-.76,0-.8-.38-.8-1.65s.04-1.65.8-1.65c1.48,0,2.96.08,4.44.08h4.27c.85,0,1.14-.34,1.18-1.14,0-.68-.04-1.65-.17-2.28v-.38c0-.47.34-.51.68-.51.47,0,2.45.17,3,.21.25.04.93.04.93.46,0,.25-.21.34-.51.55-.46.3-.51.72-.51,1.48v.59c0,.76.42,1.01,1.14,1.01h6.59ZM191.39,55.68c-1.56,0-3.17.08-4.78.08-.93,0-.97-.42-.97-1.65s.04-1.65.97-1.65c1.61,0,3.21.13,4.78.13h13.31c1.61,0,3.17-.13,4.78-.13.97,0,.97.46.97,1.65s0,1.65-.97,1.65c-1.61,0-3.17-.08-4.78-.08h-13.31Z"/>
    <path class="cls-1" d="M226.72,56.65c0,.21.17.34.34.38.3,0,.72.13.72.46s-.3.46-.63.68c-.42.3-.47.89-.47,2.32v10.27c0,1.69.08,3.34.08,5.03,0,1.23-.42,1.44-1.69,1.44s-1.73-.17-1.73-1.48c0-1.65.08-3.34.08-4.99v-8.88c0-.25-.08-.51-.38-.51-.13,0-.21.04-.34.17l-.38.38c-.59.59-1.44,1.61-1.94,1.61-.55,0-1.82-1.35-1.82-2.03,0-.34.34-.68,1.14-1.48,2.75-2.87,5.54-6.3,7.27-9.93.13-.25.21-.55.55-.55.3,0,1.44.59,2.2.93.21.08.38.21.51.25.3.17.63.34.63.68s-.38.42-.63.46c-.51.08-.59.17-.89.63-.85,1.31-1.61,2.66-2.54,3.93-.04.08-.08.13-.08.21ZM230.15,40.37c.3.13.68.3.68.63,0,.25-.34.38-.59.42-.47.04-.59.21-1.52,1.52-.21.34-.51.72-.85,1.18-1.18,1.69-4.18,5.49-5.66,6.85-.25.21-.59.46-.97.46-.59,0-1.94-1.18-1.94-1.82,0-.34.21-.51.51-.8,2.11-2.03,5.83-6.51,7.19-9.09.13-.21.21-.46.47-.46.34,0,1.23.42,1.94.76.3.13.59.25.76.34ZM234.46,56.35c-.42.25-.46.42-.55,1.27-.34,4.14-1.27,8.71-2.58,12.64-.17.51-.34,1.14-1.01,1.14-.51,0-2.03-.34-2.03-1.1,0-.21.25-.97.3-1.23,1.31-3.63,2.37-9.21,2.49-13.06,0-.47-.08-1.14.55-1.14.3,0,1.4.21,1.69.25.93.17,1.56.21,1.56.68,0,.21-.25.42-.42.55ZM239.06,69.5c0,2.07.13,4.14.13,6.26,0,1.23-.34,1.39-1.69,1.39-1.44,0-1.77-.17-1.77-1.44,0-2.07.13-4.14.13-6.21v-17.16c0-.8-.34-1.18-1.14-1.18-1.06-.04-2.11.08-3.17.08-.93,0-.93-.51-.93-1.65s0-1.61.93-1.61c1.01,0,2.11.04,3.13.08.85-.04,1.18-.34,1.18-1.18v-2.66c0-1.31,0-2.83-.17-3.85-.04-.13-.04-.3-.04-.42,0-.42.34-.55.68-.55.59,0,2.28.17,2.92.21.34.04.89.08.89.51,0,.3-.25.38-.55.59-.46.34-.51,1.06-.51,2.62v3.55c0,.84.34,1.18,1.18,1.18h.13c1.27,0,2.49-.08,3.76-.08.97,0,.93.55.93,1.61s.04,1.65-.93,1.65c-1.27,0-2.49-.08-3.76-.08h-.13c-.85,0-1.18.34-1.18,1.18v17.16ZM243.38,46.46c-.47,0-.59-.3-.72-.68-.59-1.35-1.14-2.49-1.86-3.8-.13-.21-.25-.42-.25-.68,0-.59,1.48-1.14,1.9-1.14.55,0,.85.55,1.9,2.71.21.38,1.06,2.07,1.06,2.41,0,.76-1.61,1.18-2.03,1.18ZM244.01,70.13c-.85,0-.97-.55-1.01-1.27-.34-3.97-1.23-8.71-2.2-12.55-.08-.21-.17-.51-.17-.72,0-.85,2.03-1.1,2.16-1.1.51,0,.68.38.8.8.42,1.44.76,2.87,1.06,4.31.38,1.82,1.4,7.65,1.4,9.21,0,.97-1.35,1.31-2.03,1.31ZM250.22,56.1c0-.8-.34-1.18-1.18-1.18h-.34c-1.1,0-2.24.08-3.17.08s-.97-.59-.97-1.61,0-1.65.97-1.65,2.07.08,3.17.08h4.1c1.1,0,2.2-.08,3.13-.08,1.01,0,.97.55.97,1.65,0,1.35-.08,1.61-1.06,1.61-.38,0-.85,0-1.44-.04-.72.04-.97.29-.97,1.01v14.29c0,.93.04,1.9.04,2.83,0,3.76-3.76,3.93-6.59,3.93-.51,0-1.27.04-1.56-.46-.3-.42-.51-1.69-.51-2.24,0-.51.3-.76.76-.76.17,0,.97.08,1.86.08,2.79,0,2.79-.68,2.79-3.17v-14.37ZM249.34,44.9c-1.01,0-1.99.08-2.79.08-.97,0-.93-.72-.93-1.69,0-.76-.04-1.61.85-1.61.97,0,1.9.08,2.87.08h3c.97,0,1.99-.08,2.75-.08.97,0,.97.55.97,1.65,0,.93.04,1.65-.93,1.65-.85,0-1.78-.08-2.79-.08h-3Z"/>
    <path class="cls-1" d="M279.93,70.09c0,.85.38,1.18,1.18,1.18h9.43c1.69,0,3.38-.08,5.11-.08.97,0,.97.42.97,1.77s0,1.73-.97,1.73c-1.73,0-3.42-.08-5.11-.08h-24.9c-1.69,0-3.38.08-5.11.08-.93,0-1.01-.38-1.01-1.73s.08-1.77,1.01-1.77c1.73,0,3.42.08,5.11.08h9.47c.85,0,1.18-.34,1.18-1.18v-22.91c0-.85-.34-1.18-1.18-1.18h-7.44c-1.65,0-3.3.08-4.95.08-1.01,0-1.01-.51-1.01-1.77s0-1.78,1.01-1.78c1.65,0,3.3.08,4.95.08h21.09c1.61,0,3.25-.08,4.9-.08,1.01,0,1.01.42,1.01,1.78s-.04,1.77-.97,1.77c-1.65,0-3.3-.08-4.94-.08h-7.65c-.8,0-1.18.34-1.18,1.18v22.91Z"/>
    <path class="cls-1" d="M310.31,58.8c-.17,0-.25.17-.25.34v10.69c0,1.9.08,3.85.08,5.75,0,1.35-.3,1.52-1.69,1.52s-1.73-.13-1.73-1.44c0-1.94.08-3.89.08-5.83v-9.09c0-.13-.04-.25-.21-.25-.13,0-.17.04-.21.13-.63,1.44-4.31,9.51-5.62,9.51-.68,0-2.07-1.27-2.07-1.94,0-.3.25-.59.42-.8,2.75-3.72,5.28-8.24,7.06-12.51.04-.13.08-.25.08-.38,0-.51-.42-.63-.85-.68h-1.01c-1.31,0-2.66.08-3.85.08-.85,0-.85-.51-.85-1.61s0-1.65.85-1.65c1.23,0,2.54.08,3.85.08h1.23c.85,0,1.18-.34,1.18-1.18v-3.42c0-.51-.21-.97-.85-.97-.17,0-.59.13-.68.13-1.23.25-2.79.59-3.55.59-1.1,0-1.44-1.78-1.44-2.37,0-.72.51-.76,1.06-.8,3.51-.42,8.75-1.48,11.83-3.17.08-.04.3-.13.42-.13.59,0,2.24,2.79,2.24,3s-.21.42-.42.42c-.17,0-.34-.04-.51-.13-.08-.04-.25-.08-.34-.08-.17,0-3,1.01-3.47,1.18-.85.3-1.06.63-1.06,1.48v4.27c0,.84.34,1.18,1.18,1.18h.42c1.27,0,2.58-.08,3.8-.08.85,0,.85.46.85,1.65s0,1.61-.85,1.61c-1.18,0-2.54-.08-3.8-.08h-.21c-.34.04-.72.17-.72.59,0,.13.08.25.13.38,1.44,2.41,3.17,4.48,5.07,6.55.17.17.25.34.25.59,0,.42-1.1,2.03-1.82,2.03-.93,0-3.3-4.06-3.8-4.99-.04-.08-.13-.17-.25-.17ZM332.12,69.16c0,2.16.13,4.31.13,6.47,0,1.39-.34,1.56-1.86,1.56s-1.9-.13-1.9-1.56c0-2.16.13-4.31.13-6.47v-3.51c0-.51-.21-.97-.8-.97-.13,0-.38.04-.51.08l-7.52,1.94c-.46.13-3.34.97-3.55.97-.97,0-1.31-2.32-1.31-2.66,0-.59.63-.72,2.2-1.06.46-.13,1.06-.25,1.78-.42l8.62-2.2c.85-.21,1.1-.59,1.1-1.44v-15.43c0-1.35,0-2.75-.17-3.89-.04-.17-.04-.38-.04-.55,0-.51.34-.59.76-.59s3,.21,3.42.25c.34.04.68.21.68.55s-.25.42-.59.63c-.51.34-.55,1.14-.55,2.83v15.3c.04.47.21.93.76.93.08,0,.38-.04.46-.08.38-.08,2.54-.76,2.75-.76.8,0,1.14,2.37,1.14,2.58,0,.63-.47.8-1.94,1.1-.72.17-1.48.34-2.07.51-.85.25-1.1.59-1.1,1.44v4.44ZM322.87,59.31c-.38,0-.76-.38-.97-.63-1.27-1.31-2.66-2.45-4.1-3.55-.25-.21-.63-.46-.63-.85,0-.63,1.35-1.94,2.03-1.94.51,0,3.09,2.28,3.64,2.75.51.42,2.11,1.78,2.11,2.28,0,.72-1.4,1.94-2.07,1.94ZM324.22,49.17c-.42,0-.76-.38-1.01-.68-1.18-1.31-2.49-2.54-3.89-3.72-.25-.17-.59-.42-.59-.8,0-.63,1.27-1.9,1.94-1.9.25,0,.51.13.68.25,1.23,1.01,2.41,2.07,3.51,3.17.51.51,1.35,1.27,1.35,1.78,0,.68-1.23,1.9-1.99,1.9Z"/>
    <path class="cls-1" d="M355.49,55.8c0-.59-.46-.8-1.01-.8h-9.38c-1.65,0-3.3.08-4.95.08-.85,0-.89-.38-.89-1.73s.04-1.78.89-1.78c1.65,0,3.3.13,4.95.13h9.85c.8,0,1.18-.3,1.27-1.14.08-.93.08-1.86.08-2.83v-3.55c0-1.23,0-2.62-.13-3.51-.04-.13-.04-.25-.04-.34,0-.55.46-.63.89-.63.51,0,1.01.04,1.52.08.21.04.46.04.63.04,1.01.08,1.73.13,1.73.63,0,.21-.21.34-.38.46-.55.38-.59.59-.63,1.27-.13,2.79-.04,5.58-.13,8.37-.04.8.34,1.14,1.1,1.14h9.98c1.65,0,3.3-.13,4.94-.13.89,0,.93.42.93,1.78s-.04,1.73-.93,1.73c-1.65,0-3.3-.08-4.94-.08h-9.59c-.46.04-.89.17-.89.72,0,.13,0,.25.04.34,2.87,7.82,7.9,13.91,15.17,17.88.38.21.72.38.72.84,0,.72-1.06,2.41-1.86,2.41-1.18,0-5.92-3.72-6.97-4.65-3.76-3.3-6.97-7.69-8.88-12.34-.08-.17-.21-.3-.38-.3-.21,0-.34.17-.42.34-2.71,7.4-8.5,12.72-15.39,16.36-.38.21-1.1.59-1.56.59-.8,0-1.69-1.99-1.69-2.66,0-.51.59-.76.97-.93,7.52-3.64,13.48-9.09,15.34-17.46,0-.13.04-.21.04-.34Z"/>
    <path class="cls-1" d="M401,66.88c-.8,0-1.14.38-1.14,1.18v2.32c0,.93.04,1.86.04,2.79,0,4.06-4.31,4.1-7.31,4.1-.55,0-1.48.04-1.86-.42-.34-.42-.51-1.48-.51-2.03,0-.59.25-.93.89-.93.42,0,1.27.08,2.07.08,3.38,0,3.34-.8,3.34-3.38v-2.54c0-.8-.38-1.18-1.18-1.18h-9.17c-1.69,0-3.34.13-5.03.13-.89,0-.89-.46-.89-1.61s0-1.56.89-1.56c1.69,0,3.34.08,5.03.08h9.3c.72,0,.97-.25,1.01-.97,0-.46-.04-.93-.13-1.4,0-.13-.04-.25-.04-.38,0-.42.34-.51.68-.51s.63,0,.93.04h.3c.38,0,.68-.13,1.01-.34.51-.34,3.21-2.33,3.21-2.75,0-.34-.59-.3-1.01-.3h-8.88c-1.48,0-2.96.13-4.44.13-.85,0-.89-.42-.89-1.52s.04-1.56.89-1.56c1.48,0,2.96.08,4.44.08h9.85c1.06,0,2.11-.04,3.17-.04,1.48,0,2.32,1.61,2.32,2.07,0,1.27-6.34,5.75-7.61,6.55-.21.13-.3.25-.38.55.08.25.25.34.51.34h9.47c1.69,0,3.34-.08,5.03-.08.89,0,.89.46.89,1.56s-.04,1.61-.89,1.61c-1.69,0-3.34-.13-5.03-.13h-8.88ZM412.63,47.94c1.31,0,2.32.21,2.32,1.73,0,.76-.08,1.52-.08,2.33v1.82c0,.55.08,1.14.08,1.69,0,.97-.55.97-1.73.97s-1.78,0-1.78-.93c0-.59.08-1.14.08-1.73v-1.73c0-.84-.34-1.18-1.18-1.18h-24.68c-.8,0-1.18.34-1.18,1.18v1.73c0,.51.08,1.18.08,1.73,0,.93-.59.93-1.73.93-1.23,0-1.73-.04-1.73-.97,0-.55.08-1.14.08-1.69v-1.82c0-.8-.04-1.56-.04-2.28,0-1.56.93-1.78,2.24-1.78s2.66.08,3.97.08h15c.89,0,1.27-.13,1.86-.8,1.78-2.11,3-4.06,4.4-6.38.13-.21.21-.51.51-.51.38,0,3.3,1.27,3.3,1.82,0,.38-.51.42-.76.46-.3.04-.55.21-.72.42-.85,1.44-1.73,2.79-2.79,4.1-.04.13-.13.21-.13.38,0,.38.3.46.63.51,1.31,0,2.66-.08,3.97-.08ZM387.44,47.69c-.47,0-.72-.3-.93-.68-.8-1.35-1.65-2.66-2.58-3.93-.13-.21-.34-.46-.34-.76,0-.72,1.56-1.52,2.24-1.52.63,0,1.1.68,2.37,2.54.34.51,1.48,2.16,1.48,2.66,0,.89-1.65,1.69-2.24,1.69ZM397.5,46.97c-.46,0-.72-.3-.93-.68-.76-1.44-1.61-2.83-2.54-4.14-.17-.25-.34-.46-.34-.76,0-.76,1.52-1.52,2.2-1.52.76,0,1.31,1.06,2.45,2.87.34.51,1.39,2.16,1.39,2.66,0,.8-1.61,1.56-2.24,1.56Z"/>
    <path class="cls-1" d="M431.72,67.85c-.76,0-1.14.3-1.14,1.1,0,.55.04,1.1.04,1.65,0,.93-.34,1.01-1.65,1.01s-1.61-.08-1.61-1.01c0-1.35.04-2.75.04-4.1v-18.81c0-1.01-.04-2.07-.04-3.13,0-1.31.13-2.16,1.65-2.16.63,0,1.23.04,1.82.04h3.72c.59,0,1.14-.04,1.73-.04,1.44,0,1.69.63,1.69,1.94,0,1.14-.04,2.24-.04,3.34v17.41c0,1.39.04,2.79.04,4.18,0,.84-.42.93-1.56.93-1.27,0-1.61-.08-1.61-.97v-.59c0-.59-.3-.8-.85-.8h-2.24ZM434.85,46.72c-.08-.76-.42-1.1-1.14-1.18h-1.99c-.76.08-1.1.42-1.18,1.18v5.45c.08.72.42,1.06,1.14,1.14h2.03c.72-.08,1.06-.42,1.14-1.14v-5.45ZM433.71,64.76c.72-.08,1.06-.42,1.14-1.18v-5.96c-.08-.76-.42-1.1-1.14-1.18h-1.99c-.76.08-1.1.42-1.18,1.18v5.96c.08.72.42,1.06,1.14,1.18h2.03ZM452.01,44.73c0,.85.34,1.18,1.18,1.18h1.56c.89,0,1.78-.04,2.66-.04,1.35,0,1.94.42,1.94,1.82,0,.85-.04,1.69-.04,2.54v7.35c0,.8.34,1.1,1.1,1.14.72,0,1.44-.04,2.11-.04.97,0,.93.55.93,1.65s0,1.61-.93,1.61c-1.44,0-2.92-.08-4.35-.08h-4.52c-.47.04-.85.17-.85.72,0,.13,0,.21.04.34,2.16,5.24,5.71,8.88,10.57,11.67.3.17.51.34.51.72,0,.8-1.06,2.07-1.9,2.07-1.06,0-4.65-3.04-5.54-3.85-2.41-2.28-4.35-5.07-5.62-8.16-.08-.17-.21-.34-.42-.34s-.34.17-.42.34c-2.11,4.78-6.04,8.79-10.69,11.12-.46.25-1.44.72-1.94.72-.97,0-1.86-1.61-1.86-2.32,0-.46.51-.63.89-.76,5.11-1.94,9.3-6,11.16-11.2.04-.08.08-.21.08-.34,0-.55-.46-.68-.93-.72h-2.66c-1.44,0-2.92.08-4.35.08-.93,0-.93-.51-.93-1.61,0-1.18,0-1.65.93-1.65.3,0,.59,0,.89.04.59-.04.85-.3.85-.85v-7.65c0-.85-.08-1.69-.08-2.54,0-1.39.59-1.82,1.94-1.82.89,0,1.77.04,2.71.04h1.65c.85,0,1.18-.34,1.18-1.18v-1.23c0-.97-.04-1.86-.17-2.83v-.42c0-.51.3-.63.72-.63.46,0,2.58.21,3.09.25.34.04.63.17.63.55,0,.3-.3.46-.55.63-.51.34-.55.68-.55,2.2v1.48ZM445.67,48.87c-.85.08-1.1.34-1.18,1.18v7.57c.08.8.34,1.14,1.18,1.14h1.73c.8,0,1.14-.25,1.27-1.1.13-1.1.17-2.07.17-3.17v-4.44c0-.85-.34-1.1-1.18-1.18h-1.99ZM452.94,58.76h2.16c.8,0,1.14-.34,1.14-1.14v-7.57c0-.85-.34-1.1-1.14-1.18h-1.94c-.8.08-1.14.34-1.14,1.18v4.44c0,1.06-.08,2.11-.13,3.13-.04.8.3,1.14,1.06,1.14Z"/>
    <path class="cls-1" d="M474.32,52c0,.34-.3.46-.55.63-.46.3-.51.8-.51,2.45v15.13c0,1.82.08,3.68.08,5.5,0,1.27-.38,1.48-1.65,1.48s-1.69-.25-1.69-1.52c0-1.82.08-3.63.08-5.45v-12.93c0-.17-.04-.34-.25-.34-.13,0-.17.04-.25.13-.38.63-1.82,2.87-2.49,2.87-.59,0-1.9-1.48-1.9-2.24,0-.34.42-.89.63-1.18,3.42-4.65,6.34-10.57,7.69-16.19.08-.38.17-.84.63-.84.3,0,1.61.46,1.99.59,1.01.38,1.61.55,1.61,1.06,0,.25-.34.42-.59.55-.55.21-.59.38-.85,1.18-.89,2.75-1.99,5.37-3.25,7.95,0,.04-.04.13-.04.21,0,.25.17.38.42.42.34.04.89.08.89.55ZM485.65,57.54c0-.25-.25-.34-.42-.34h-.76c-.89,0-1.82.04-2.71.04-1.1,0-1.9-.21-1.9-1.48,0-.51.04-1.01.04-1.52v-1.82c0-.21-.08-.42-.34-.42-.13,0-.21.04-.34.13-.25.25-.55.51-.89.51-.63,0-2.16-1.14-2.16-1.82,0-.34.34-.59.55-.8,2.83-2.92,5.28-6.26,7.02-9.93.08-.21.21-.51.51-.51.08,0,3.63.8,3.63,1.39,0,.3-.3.42-.51.47-.34.08-.55.13-.72.38-.08.13-.08.17-.08.3,0,.3.3.42.55.42h4.31c.63,0,1.31-.04,1.94-.04,1.86,0,2.28,1.35,2.28,1.61,0,.59-1.1,1.94-1.69,2.71-.17.21-.42.42-.42.72,0,.38.3.46.59.51h2.66c.93,0,1.82-.08,2.71-.08,1.1,0,1.9.21,1.9,1.48,0,.55-.04,1.06-.04,1.56v3.25c0,.46.04.97.04,1.44,0,1.31-.68,1.56-1.82,1.56-.93,0-1.86-.04-2.79-.04h-1.27c-.51,0-.93.17-.93.76,0,.13,0,.21.04.34.3,1.01.68,2.03,1.06,3,.17.25.38.55.72.55.25,0,.38-.04.63-.21,1.06-.85,1.86-1.69,2.83-2.58.13-.17.3-.34.51-.34.3,0,.8.51,1.14.93.08.08.38.42.46.51.34.38.89.97.89,1.23s-.21.38-.42.38c-.13,0-.21-.04-.3-.04-.13-.04-.21-.08-.34-.08-.21,0-.34.04-.46.17-.93.8-1.65,1.48-2.96,2.45-.3.21-.55.51-.55.89,0,.3.08.46.21.72,1.39,2.16,2.79,3.85,4.56,5.75.21.25.68.72.68,1.01,0,.68-1.44,1.86-2.11,1.86-.89,0-3.59-3.68-4.14-4.48-2.75-3.93-4.31-7.65-5.58-12.22-.08-.34-.25-.51-.59-.59-.3.04-.42.13-.68.3-.34.25-.68.55-1.01.8-.17.13-.34.34-.34.59s.08.46.3.63c3.09,3,4.78,6.97,4.78,11.29,0,4.9-1.94,6.47-6.76,6.47-1.86,0-2.49-.04-2.49-2.16,0-.55.04-1.01.68-1.01.38,0,1.56.13,2.45.13,2.54,0,2.83-1.69,2.83-3.85v-.93c-.08-.34-.21-.59-.59-.59-.17,0-.3.08-.42.17-3,2.28-6.55,4.31-10.02,5.83-.42.21-1.61.72-2.07.72-.68,0-1.48-1.27-1.48-1.9,0-.51.55-.72,1.23-.97,4.56-1.82,8.07-3.68,11.92-6.64.25-.21.42-.42.42-.76,0-.21-.08-.42-.17-.59-.13-.3-.34-.59-.72-.59-.3,0-.46.08-.68.25-2.58,1.9-5.58,3.55-8.2,4.73-.76.34-1.99.93-2.41.93-.68,0-1.35-1.18-1.35-1.78,0-.51.63-.72,1.18-.93,3.04-1.14,6.89-3,9.43-4.99.25-.17.47-.46.47-.8,0-.3-.13-.51-.42-.76-.17-.17-.3-.25-.51-.25-.17,0-.34.08-.46.17-1.35.84-7.27,4.23-8.58,4.23-.68,0-1.44-1.18-1.44-1.82,0-.51.46-.68,1.27-.97,2.79-1.06,6-2.62,8.45-4.31.08-.08.17-.17.17-.3ZM489.03,51.83c0-.76-.42-1.18-1.14-1.18h-3.68c-.72,0-1.14.42-1.14,1.14v1.56c0,.72.42,1.14,1.14,1.14h3.68c.72,0,1.14-.42,1.14-1.14v-1.52ZM485.73,45.15c-.72,0-1.1.08-1.52.72-.3.42-.51.8-.8,1.18-.08.13-.13.25-.13.42,0,.34.13.55,1.18.55h3.68c.8,0,1.14-.13,1.61-.76.25-.3,1.18-1.48,1.18-1.82s-.55-.3-.8-.3h-4.4ZM491.99,53.35c0,.72.42,1.14,1.14,1.14h3.89c.76,0,1.18-.42,1.18-1.14v-1.52c0-.76-.42-1.18-1.14-1.18h-3.93c-.72,0-1.14.42-1.14,1.14v1.56Z"/>
    <path class="cls-1" d="M527.87,66.88c-.8,0-1.14.38-1.14,1.18v2.32c0,.93.04,1.86.04,2.79,0,4.06-4.31,4.1-7.31,4.1-.55,0-1.48.04-1.86-.42-.34-.42-.51-1.48-.51-2.03,0-.59.25-.93.89-.93.42,0,1.27.08,2.07.08,3.38,0,3.34-.8,3.34-3.38v-2.54c0-.8-.38-1.18-1.18-1.18h-9.17c-1.69,0-3.34.13-5.03.13-.89,0-.89-.46-.89-1.61s0-1.56.89-1.56c1.69,0,3.34.08,5.03.08h9.3c.72,0,.97-.25,1.01-.97,0-.46-.04-.93-.13-1.4,0-.13-.04-.25-.04-.38,0-.42.34-.51.68-.51s.63,0,.93.04h.3c.38,0,.68-.13,1.01-.34.51-.34,3.21-2.33,3.21-2.75,0-.34-.59-.3-1.01-.3h-8.88c-1.48,0-2.96.13-4.44.13-.85,0-.89-.42-.89-1.52s.04-1.56.89-1.56c1.48,0,2.96.08,4.44.08h9.85c1.06,0,2.11-.04,3.17-.04,1.48,0,2.32,1.61,2.32,2.07,0,1.27-6.34,5.75-7.61,6.55-.21.13-.3.25-.38.55.08.25.25.34.51.34h9.47c1.69,0,3.34-.08,5.03-.08.89,0,.89.46.89,1.56s-.04,1.61-.89,1.61c-1.69,0-3.34-.13-5.03-.13h-8.88ZM539.49,47.94c1.31,0,2.32.21,2.32,1.73,0,.76-.08,1.52-.08,2.33v1.82c0,.55.08,1.14.08,1.69,0,.97-.55.97-1.73.97s-1.78,0-1.78-.93c0-.59.08-1.14.08-1.73v-1.73c0-.84-.34-1.18-1.18-1.18h-24.68c-.8,0-1.18.34-1.18,1.18v1.73c0,.51.08,1.18.08,1.73,0,.93-.59.93-1.73.93-1.23,0-1.73-.04-1.73-.97,0-.55.08-1.14.08-1.69v-1.82c0-.8-.04-1.56-.04-2.28,0-1.56.93-1.78,2.24-1.78s2.66.08,3.97.08h15c.89,0,1.27-.13,1.86-.8,1.78-2.11,3-4.06,4.4-6.38.13-.21.21-.51.51-.51.38,0,3.3,1.27,3.3,1.82,0,.38-.51.42-.76.46-.3.04-.55.21-.72.42-.85,1.44-1.73,2.79-2.79,4.1-.04.13-.13.21-.13.38,0,.38.3.46.63.51,1.31,0,2.66-.08,3.97-.08ZM514.3,47.69c-.47,0-.72-.3-.93-.68-.8-1.35-1.65-2.66-2.58-3.93-.13-.21-.34-.46-.34-.76,0-.72,1.56-1.52,2.24-1.52.63,0,1.1.68,2.37,2.54.34.51,1.48,2.16,1.48,2.66,0,.89-1.65,1.69-2.24,1.69ZM524.36,46.97c-.46,0-.72-.3-.93-.68-.76-1.44-1.61-2.83-2.54-4.14-.17-.25-.34-.46-.34-.76,0-.76,1.52-1.52,2.2-1.52.76,0,1.31,1.06,2.45,2.87.34.51,1.39,2.16,1.39,2.66,0,.8-1.61,1.56-2.24,1.56Z"/>
    <path class="cls-1" d="M557.11,58.8c-.17,0-.25.17-.25.34v10.69c0,1.9.08,3.85.08,5.75,0,1.35-.3,1.52-1.69,1.52s-1.73-.13-1.73-1.44c0-1.94.08-3.89.08-5.83v-9.09c0-.13-.04-.25-.21-.25-.13,0-.17.04-.21.13-.63,1.44-4.31,9.51-5.62,9.51-.68,0-2.07-1.27-2.07-1.94,0-.3.25-.59.42-.8,2.75-3.72,5.28-8.24,7.06-12.51.04-.13.08-.25.08-.38,0-.51-.42-.63-.85-.68h-1.01c-1.31,0-2.66.08-3.85.08-.85,0-.85-.51-.85-1.61s0-1.65.85-1.65c1.23,0,2.54.08,3.85.08h1.23c.85,0,1.18-.34,1.18-1.18v-3.42c0-.51-.21-.97-.85-.97-.17,0-.59.13-.68.13-1.23.25-2.79.59-3.55.59-1.1,0-1.44-1.78-1.44-2.37,0-.72.51-.76,1.06-.8,3.51-.42,8.75-1.48,11.83-3.17.08-.04.3-.13.42-.13.59,0,2.24,2.79,2.24,3s-.21.42-.42.42c-.17,0-.34-.04-.51-.13-.08-.04-.25-.08-.34-.08-.17,0-3,1.01-3.47,1.18-.85.3-1.06.63-1.06,1.48v4.27c0,.84.34,1.18,1.18,1.18h.42c1.27,0,2.58-.08,3.8-.08.85,0,.85.46.85,1.65s0,1.61-.85,1.61c-1.18,0-2.54-.08-3.8-.08h-.21c-.34.04-.72.17-.72.59,0,.13.08.25.13.38,1.44,2.41,3.17,4.48,5.07,6.55.17.17.25.34.25.59,0,.42-1.1,2.03-1.82,2.03-.93,0-3.3-4.06-3.8-4.99-.04-.08-.13-.17-.25-.17ZM578.92,69.16c0,2.16.13,4.31.13,6.47,0,1.39-.34,1.56-1.86,1.56s-1.9-.13-1.9-1.56c0-2.16.13-4.31.13-6.47v-3.51c0-.51-.21-.97-.8-.97-.13,0-.38.04-.51.08l-7.52,1.94c-.46.13-3.34.97-3.55.97-.97,0-1.31-2.32-1.31-2.66,0-.59.63-.72,2.2-1.06.46-.13,1.06-.25,1.77-.42l8.62-2.2c.85-.21,1.1-.59,1.1-1.44v-15.43c0-1.35,0-2.75-.17-3.89-.04-.17-.04-.38-.04-.55,0-.51.34-.59.76-.59s3,.21,3.42.25c.34.04.68.21.68.55s-.25.42-.59.63c-.51.34-.55,1.14-.55,2.83v15.3c.04.47.21.93.76.93.08,0,.38-.04.46-.08.38-.08,2.54-.76,2.75-.76.8,0,1.14,2.37,1.14,2.58,0,.63-.47.8-1.94,1.1-.72.17-1.48.34-2.07.51-.85.25-1.1.59-1.1,1.44v4.44ZM569.66,59.31c-.38,0-.76-.38-.97-.63-1.27-1.31-2.66-2.45-4.1-3.55-.25-.21-.63-.46-.63-.85,0-.63,1.35-1.94,2.03-1.94.51,0,3.09,2.28,3.64,2.75.51.42,2.11,1.78,2.11,2.28,0,.72-1.4,1.94-2.07,1.94ZM571.02,49.17c-.42,0-.76-.38-1.01-.68-1.18-1.31-2.49-2.54-3.89-3.72-.25-.17-.59-.42-.59-.8,0-.63,1.27-1.9,1.94-1.9.25,0,.51.13.68.25,1.23,1.01,2.41,2.07,3.51,3.17.51.51,1.35,1.27,1.35,1.78,0,.68-1.23,1.9-1.99,1.9Z"/>
  </g>
  <g>
    <path class="cls-1" d="M34.73,77.08c2.57,0,4.65-2.07,4.65-4.63s-2.08-4.65-4.65-4.65-4.63,2.08-4.63,4.65,2.07,4.63,4.63,4.63"/>
    <path class="cls-1" d="M46.34,61.62c3.43,0,6.19-2.78,6.19-6.18s-2.75-6.19-6.19-6.19-6.19,2.78-6.19,6.19,2.77,6.18,6.19,6.18"/>
    <path class="cls-1" d="M55.27,77.08c3.44,0,6.19-2.75,6.19-6.18s-2.75-6.17-6.19-6.17-6.2,2.76-6.2,6.17,2.78,6.18,6.2,6.18"/>
    <path class="cls-1" d="M58.66,49.58c-.67,1.3-1.05,2.76-1.05,4.3,0,5,3.95,9.08,8.89,9.27.16,0,.25.11.25.24,0,.05-.03.07-.04.12h-.02c-.67,1.29-1.05,2.75-1.05,4.29,0,5.14,4.15,9.3,9.27,9.3s9.3-4.16,9.3-9.3-3.98-9.07-8.92-9.26h0c-.11-.04-.21-.13-.21-.24,0-.04,0-.06.02-.08.7-1.31,1.09-2.78,1.09-4.34,0-5.01-3.96-9.09-8.93-9.27h.02c-.13,0-.23-.11-.23-.23v-.1h.01c.67-1.3,1.09-2.78,1.09-4.33,0-5.13-4.17-9.28-9.28-9.28s-9.3,4.16-9.3,9.28,3.96,9.06,8.91,9.27c.13,0,.23.11.23.22,0,.03-.01.07-.01.08"/>
  </g>
  <g>
    <path class="cls-1" d="M83.45,392.19l40.69,153.34h-18.62l-11.26-43.91h-46.21l-11.03,43.91h-18.62l42.99-153.34h22.07ZM71.27,410.36l-19.31,76.32h38.39l-19.08-76.32Z"/>
    <path class="cls-1" d="M167.36,392.19l58.62,121.15v-121.15h16.09v153.34h-18.39l-63.91-130.58v130.58h-16.09v-153.34h23.68Z"/>
    <path class="cls-1" d="M306.67,392.19c43.45,0,70.12,28.74,70.12,75.63,0,11.72-1.84,22.99-5.52,33.33-10.34,28.74-33.1,44.37-64.6,44.37h-33.1v-153.34h33.1ZM292.19,530.13h14.48c31.72,0,50.35-22.53,50.35-60.92s-18.85-61.61-50.35-61.61h-14.48v122.53Z"/>
    <path class="cls-1" d="M544.84,469.67v77.93h-12.64l-2.53-21.15c-8.28,15.63-19.54,22.3-37.01,22.3-11.95,0-22.99-4.14-31.04-11.5-14.02-13.1-21.84-37.24-21.84-67.59,0-15.86,2.07-30.12,6.44-43.68,7.59-23.68,25.52-37.01,49.89-37.01,25.98,0,39.54,11.95,47.59,42.07l-16.78,6.44c-3.68-12.41-5.75-17.47-9.2-22.07-5.06-7.13-12.64-10.8-22.3-10.8-3.22,0-6.44.46-9.43,1.38-17.7,5.29-26.44,25.75-26.44,62.99,0,9.66.69,18.85,2.3,27.59,4.14,23.68,16.09,36.55,33.56,36.55,3.91,0,7.36-.69,10.81-1.84,13.33-4.6,20.69-19.31,20.69-41.15v-5.06h-31.5v-15.4h49.43Z"/>
    <path class="cls-1" d="M627.6,392.19l40.69,153.34h-18.62l-11.26-43.91h-46.21l-11.03,43.91h-18.62l42.99-153.34h22.07ZM615.42,410.36l-19.31,76.32h38.39l-19.08-76.32Z"/>
    <path class="cls-1" d="M714.5,392.19l36.09,123.45,36.09-123.45h26.21v153.34h-17.47v-132.88l-39.54,132.88h-13.56l-38.62-133.11v133.11h-16.09v-153.34h26.9Z"/>
    <path class="cls-1" d="M928.53,392.19v15.4h-64.6v50.81h51.04v15.4h-51.04v56.32h66.44v15.4h-85.06v-153.34h83.22Z"/>
  </g>
</svg>